<svg xmlns="http://www.w3.org/2000/svg" xmlns:xlink="http://www.w3.org/1999/xlink" width="80" zoomAndPan="magnify" viewBox="0 0 60 30.000001" height="40" preserveAspectRatio="xMidYMid meet" version="1.0"><defs><g/><clipPath id="a486d203d8"><path d="M 0.96875 0 L 59.03125 0 L 59.03125 29.03125 L 0.96875 29.03125 Z M 0.96875 0 " clip-rule="nonzero"/></clipPath><clipPath id="816f0edb4f"><path d="M 4 10 L 14 10 L 14 26 L 4 26 Z M 4 10 " clip-rule="nonzero"/></clipPath><clipPath id="405e82daf8"><path d="M 10.128906 27.246094 L 0.863281 17.984375 L 11.09375 7.753906 L 20.355469 17.019531 Z M 10.128906 27.246094 " clip-rule="nonzero"/></clipPath><clipPath id="5742a64a3a"><path d="M 10.128906 27.246094 L 0.863281 17.984375 L 11.09375 7.753906 L 20.355469 17.019531 Z M 10.128906 27.246094 " clip-rule="nonzero"/></clipPath><clipPath id="cf0ad7ca2a"><path d="M 8.207031 14.507812 C 7.859375 14.855469 7.570312 15.242188 7.339844 15.675781 C 7.109375 16.109375 6.945312 16.5625 6.851562 17.042969 C 6.753906 17.523438 6.730469 18.007812 6.777344 18.496094 C 6.828125 18.984375 6.945312 19.453125 7.132812 19.90625 C 7.320312 20.359375 7.570312 20.773438 7.878906 21.152344 C 8.191406 21.53125 8.550781 21.855469 8.957031 22.128906 C 9.363281 22.402344 9.800781 22.609375 10.269531 22.75 C 10.738281 22.890625 11.21875 22.964844 11.707031 22.964844 L 11.707031 22.605469 C 11.40625 22.605469 11.109375 22.574219 10.8125 22.515625 C 10.515625 22.457031 10.230469 22.371094 9.949219 22.253906 C 9.671875 22.140625 9.40625 21.996094 9.15625 21.828125 C 8.90625 21.660156 8.671875 21.472656 8.460938 21.257812 C 8.246094 21.042969 8.054688 20.8125 7.886719 20.5625 C 7.71875 20.3125 7.578125 20.046875 7.464844 19.765625 C 7.347656 19.488281 7.261719 19.203125 7.203125 18.90625 C 7.144531 18.609375 7.113281 18.3125 7.113281 18.007812 C 7.113281 17.707031 7.144531 17.410156 7.203125 17.113281 C 7.261719 16.816406 7.347656 16.53125 7.464844 16.25 C 7.578125 15.972656 7.722656 15.707031 7.890625 15.457031 C 8.058594 15.207031 8.246094 14.972656 8.460938 14.761719 C 8.675781 14.546875 8.90625 14.355469 9.15625 14.1875 C 9.40625 14.019531 9.671875 13.878906 9.953125 13.765625 C 10.230469 13.648438 10.519531 13.5625 10.8125 13.503906 C 11.109375 13.445312 11.410156 13.414062 11.710938 13.414062 L 13.738281 13.414062 L 13.738281 13.054688 L 11.710938 13.058594 C 11.050781 13.054688 10.421875 13.179688 9.8125 13.433594 C 9.207031 13.683594 8.667969 14.042969 8.207031 14.507812 Z M 9.476562 15.777344 C 9.027344 16.230469 8.738281 16.769531 8.613281 17.394531 C 8.488281 18.019531 8.550781 18.628906 8.792969 19.21875 C 9.039062 19.808594 9.425781 20.28125 9.957031 20.632812 C 10.484375 20.988281 11.070312 21.167969 11.707031 21.167969 L 11.707031 20.808594 C 11.335938 20.808594 10.980469 20.734375 10.636719 20.59375 C 10.296875 20.453125 9.992188 20.25 9.730469 19.988281 C 9.46875 19.726562 9.265625 19.421875 9.125 19.082031 C 8.980469 18.738281 8.910156 18.382812 8.910156 18.011719 C 8.910156 17.640625 8.980469 17.28125 9.125 16.941406 C 9.265625 16.597656 9.46875 16.292969 9.730469 16.03125 C 9.992188 15.769531 10.296875 15.566406 10.636719 15.425781 C 10.980469 15.285156 11.335938 15.214844 11.707031 15.214844 L 13.738281 15.214844 L 13.738281 14.855469 L 11.707031 14.855469 C 10.835938 14.851562 10.09375 15.160156 9.476562 15.777344 Z M 8.839844 15.140625 C 8.558594 15.425781 8.320312 15.746094 8.132812 16.097656 C 7.945312 16.453125 7.808594 16.824219 7.730469 17.21875 C 7.652344 17.609375 7.632812 18.007812 7.671875 18.40625 C 7.714844 18.804688 7.808594 19.1875 7.960938 19.558594 C 8.117188 19.929688 8.320312 20.269531 8.574219 20.578125 C 8.828125 20.890625 9.121094 21.15625 9.453125 21.378906 C 9.789062 21.601562 10.144531 21.769531 10.53125 21.886719 C 10.914062 22.003906 11.304688 22.0625 11.707031 22.0625 L 11.707031 21.707031 C 11.226562 21.695312 10.765625 21.589844 10.320312 21.398438 C 9.878906 21.207031 9.492188 20.9375 9.152344 20.589844 C 8.816406 20.246094 8.558594 19.851562 8.375 19.402344 C 8.195312 18.957031 8.101562 18.492188 8.101562 18.011719 C 8.101562 17.527344 8.195312 17.0625 8.375 16.617188 C 8.558594 16.171875 8.816406 15.773438 9.152344 15.429688 C 9.492188 15.082031 9.878906 14.816406 10.324219 14.621094 C 10.765625 14.429688 11.226562 14.328125 11.707031 14.316406 L 13.738281 14.316406 L 13.738281 13.957031 L 11.707031 13.957031 C 10.585938 13.953125 9.632812 14.347656 8.839844 15.144531 Z M 6.933594 13.234375 C 6.621094 13.550781 6.339844 13.890625 6.09375 14.257812 C 5.847656 14.628906 5.640625 15.015625 5.472656 15.425781 C 5.300781 15.835938 5.171875 16.257812 5.085938 16.691406 C 5 17.128906 4.957031 17.566406 4.957031 18.011719 C 4.957031 18.453125 5 18.890625 5.089844 19.328125 C 5.175781 19.761719 5.304688 20.183594 5.472656 20.59375 C 5.640625 21.003906 5.851562 21.390625 6.097656 21.761719 C 6.34375 22.128906 6.621094 22.46875 6.9375 22.78125 C 7.566406 23.417969 8.296875 23.90625 9.125 24.25 C 9.953125 24.59375 10.8125 24.761719 11.707031 24.761719 L 11.707031 24.402344 C 11.289062 24.402344 10.871094 24.363281 10.460938 24.28125 C 10.046875 24.199219 9.648438 24.078125 9.261719 23.917969 C 8.875 23.757812 8.503906 23.558594 8.15625 23.324219 C 7.808594 23.09375 7.484375 22.828125 7.1875 22.53125 C 6.890625 22.234375 6.625 21.910156 6.394531 21.5625 C 6.160156 21.214844 5.960938 20.84375 5.800781 20.457031 C 5.640625 20.070312 5.519531 19.671875 5.4375 19.257812 C 5.355469 18.847656 5.316406 18.429688 5.316406 18.011719 C 5.316406 17.59375 5.355469 17.175781 5.4375 16.765625 C 5.519531 16.351562 5.640625 15.953125 5.800781 15.566406 C 5.960938 15.179688 6.160156 14.808594 6.394531 14.460938 C 6.625 14.113281 6.890625 13.789062 7.1875 13.492188 C 7.484375 13.195312 7.808594 12.929688 8.15625 12.699219 C 8.503906 12.464844 8.875 12.265625 9.261719 12.105469 C 9.648438 11.945312 10.046875 11.824219 10.460938 11.742188 C 10.871094 11.660156 11.289062 11.621094 11.707031 11.621094 L 13.734375 11.617188 L 13.734375 11.261719 L 11.707031 11.261719 C 10.8125 11.257812 9.949219 11.425781 9.125 11.769531 C 8.296875 12.113281 7.566406 12.601562 6.933594 13.238281 Z M 10.109375 16.414062 C 9.789062 16.734375 9.582031 17.121094 9.492188 17.570312 C 9.40625 18.015625 9.449219 18.449219 9.621094 18.871094 C 9.796875 19.292969 10.074219 19.632812 10.453125 19.886719 C 10.832031 20.140625 11.25 20.265625 11.707031 20.265625 L 11.707031 19.90625 C 11.457031 19.90625 11.214844 19.859375 10.980469 19.761719 C 10.75 19.667969 10.542969 19.53125 10.363281 19.351562 C 10.1875 19.171875 10.050781 18.96875 9.953125 18.734375 C 9.855469 18.503906 9.808594 18.261719 9.808594 18.007812 C 9.808594 17.757812 9.855469 17.515625 9.953125 17.28125 C 10.050781 17.050781 10.1875 16.84375 10.363281 16.667969 C 10.542969 16.488281 10.75 16.351562 10.980469 16.253906 C 11.214844 16.160156 11.457031 16.109375 11.707031 16.109375 L 13.738281 16.113281 L 13.738281 15.753906 L 11.707031 15.753906 C 11.082031 15.753906 10.550781 15.972656 10.113281 16.414062 Z M 7.570312 13.871094 C 7.160156 14.28125 6.820312 14.742188 6.546875 15.25 C 6.273438 15.761719 6.078125 16.300781 5.964844 16.867188 C 5.855469 17.4375 5.824219 18.007812 5.882812 18.582031 C 5.9375 19.160156 6.078125 19.714844 6.300781 20.25 C 6.519531 20.785156 6.816406 21.277344 7.183594 21.722656 C 7.550781 22.171875 7.972656 22.554688 8.457031 22.878906 C 8.9375 23.199219 9.453125 23.441406 10.007812 23.609375 C 10.5625 23.777344 11.128906 23.863281 11.707031 23.863281 L 11.707031 23.503906 C 11.351562 23.5 10.996094 23.460938 10.644531 23.390625 C 10.292969 23.316406 9.953125 23.210938 9.621094 23.070312 C 9.289062 22.929688 8.976562 22.761719 8.679688 22.558594 C 8.382812 22.359375 8.109375 22.132812 7.855469 21.878906 C 7.601562 21.621094 7.378906 21.34375 7.179688 21.046875 C 6.980469 20.746094 6.8125 20.433594 6.679688 20.101562 C 6.542969 19.769531 6.4375 19.425781 6.367188 19.074219 C 6.300781 18.722656 6.265625 18.367188 6.265625 18.011719 C 6.265625 17.652344 6.300781 17.296875 6.367188 16.945312 C 6.4375 16.59375 6.542969 16.25 6.679688 15.917969 C 6.8125 15.585938 6.980469 15.273438 7.179688 14.972656 C 7.378906 14.675781 7.605469 14.398438 7.855469 14.144531 C 8.109375 13.890625 8.382812 13.660156 8.679688 13.460938 C 8.976562 13.257812 9.292969 13.089844 9.621094 12.949219 C 9.953125 12.808594 10.292969 12.703125 10.644531 12.632812 C 10.996094 12.558594 11.351562 12.519531 11.707031 12.519531 L 13.734375 12.519531 L 13.734375 12.160156 L 11.707031 12.160156 C 10.933594 12.15625 10.183594 12.304688 9.46875 12.601562 C 8.75 12.898438 8.117188 13.324219 7.570312 13.871094 Z M 4.058594 18.011719 C 4.058594 18.511719 4.109375 19.011719 4.207031 19.503906 C 4.304688 19.996094 4.449219 20.472656 4.640625 20.9375 C 4.832031 21.402344 5.070312 21.84375 5.347656 22.261719 C 5.628906 22.679688 5.945312 23.0625 6.300781 23.417969 C 6.65625 23.773438 7.042969 24.089844 7.457031 24.371094 C 7.875 24.648438 8.316406 24.886719 8.78125 25.078125 C 9.246094 25.269531 9.722656 25.414062 10.214844 25.511719 C 10.707031 25.609375 11.207031 25.660156 11.707031 25.660156 L 11.707031 25.300781 C 11.230469 25.300781 10.753906 25.253906 10.285156 25.160156 C 9.816406 25.066406 9.359375 24.929688 8.917969 24.746094 C 8.476562 24.5625 8.054688 24.339844 7.65625 24.070312 C 7.261719 23.804688 6.890625 23.503906 6.554688 23.164062 C 6.214844 22.828125 5.914062 22.457031 5.648438 22.0625 C 5.378906 21.664062 5.15625 21.242188 4.972656 20.800781 C 4.789062 20.359375 4.652344 19.902344 4.558594 19.433594 C 4.464844 18.964844 4.417969 18.488281 4.417969 18.011719 C 4.417969 17.53125 4.464844 17.058594 4.558594 16.589844 C 4.652344 16.117188 4.789062 15.664062 4.972656 15.21875 C 5.15625 14.777344 5.378906 14.359375 5.648438 13.960938 C 5.914062 13.5625 6.214844 13.195312 6.554688 12.855469 C 6.890625 12.515625 7.261719 12.214844 7.65625 11.949219 C 8.054688 11.683594 8.476562 11.457031 8.917969 11.273438 C 9.359375 11.089844 9.816406 10.953125 10.285156 10.859375 C 10.753906 10.765625 11.230469 10.71875 11.707031 10.71875 L 13.734375 10.71875 L 13.730469 10.359375 L 11.707031 10.359375 C 11.207031 10.359375 10.707031 10.410156 10.214844 10.507812 C 9.722656 10.605469 9.246094 10.75 8.78125 10.945312 C 8.316406 11.136719 7.875 11.371094 7.457031 11.652344 C 7.042969 11.929688 6.65625 12.246094 6.300781 12.601562 C 5.945312 12.957031 5.628906 13.34375 5.347656 13.761719 C 5.070312 14.179688 4.832031 14.617188 4.640625 15.082031 C 4.449219 15.546875 4.304688 16.027344 4.207031 16.519531 C 4.109375 17.011719 4.058594 17.507812 4.058594 18.011719 Z M 4.058594 18.011719 " clip-rule="nonzero"/></clipPath><linearGradient x1="-4011.20011" gradientTransform="matrix(0.0473905, 0, 0, 0.0473905, 194.19226, -153.495857)" y1="3456.82819" x2="-3759.279318" gradientUnits="userSpaceOnUse" y2="3736.739253" id="b3b4ca566a"><stop stop-opacity="1" stop-color="rgb(63.09967%, 0%, 92.89856%)" offset="0"/><stop stop-opacity="1" stop-color="rgb(63.09967%, 0%, 92.89856%)" offset="0.25"/><stop stop-opacity="1" stop-color="rgb(63.09967%, 0%, 92.89856%)" offset="0.36283"/><stop stop-opacity="1" stop-color="rgb(63.09967%, 0%, 92.89856%)" offset="0.375"/><stop stop-opacity="1" stop-color="rgb(63.09967%, 0%, 92.89856%)" offset="0.4375"/><stop stop-opacity="1" stop-color="rgb(63.002014%, 0.0335693%, 92.909241%)" offset="0.46875"/><stop stop-opacity="1" stop-color="rgb(61.759949%, 0.465393%, 93.049622%)" offset="0.472656"/><stop stop-opacity="1" stop-color="rgb(60.61554%, 0.865173%, 93.179321%)" offset="0.476562"/><stop stop-opacity="1" stop-color="rgb(59.47113%, 1.263428%, 93.307495%)" offset="0.480469"/><stop stop-opacity="1" stop-color="rgb(58.326721%, 1.663208%, 93.435669%)" offset="0.484375"/><stop stop-opacity="1" stop-color="rgb(57.182312%, 2.061462%, 93.563843%)" offset="0.488281"/><stop stop-opacity="1" stop-color="rgb(56.039429%, 2.461243%, 93.693542%)" offset="0.492188"/><stop stop-opacity="1" stop-color="rgb(54.89502%, 2.859497%, 93.821716%)" offset="0.496094"/><stop stop-opacity="1" stop-color="rgb(53.75061%, 3.259277%, 93.951416%)" offset="0.5"/><stop stop-opacity="1" stop-color="rgb(52.606201%, 3.657532%, 94.07959%)" offset="0.503906"/><stop stop-opacity="1" stop-color="rgb(51.461792%, 4.055786%, 94.20929%)" offset="0.507812"/><stop stop-opacity="1" stop-color="rgb(50.317383%, 4.454041%, 94.337463%)" offset="0.511719"/><stop stop-opacity="1" stop-color="rgb(49.1745%, 4.853821%, 94.465637%)" offset="0.515625"/><stop stop-opacity="1" stop-color="rgb(48.03009%, 5.252075%, 94.593811%)" offset="0.519531"/><stop stop-opacity="1" stop-color="rgb(46.885681%, 5.651855%, 94.723511%)" offset="0.523438"/><stop stop-opacity="1" stop-color="rgb(45.741272%, 6.05011%, 94.851685%)" offset="0.527344"/><stop stop-opacity="1" stop-color="rgb(44.596863%, 6.44989%, 94.981384%)" offset="0.53125"/><stop stop-opacity="1" stop-color="rgb(43.452454%, 6.848145%, 95.109558%)" offset="0.535156"/><stop stop-opacity="1" stop-color="rgb(42.30957%, 7.247925%, 95.239258%)" offset="0.539062"/><stop stop-opacity="1" stop-color="rgb(41.165161%, 7.646179%, 95.367432%)" offset="0.542969"/><stop stop-opacity="1" stop-color="rgb(40.020752%, 8.045959%, 95.495605%)" offset="0.546875"/><stop stop-opacity="1" stop-color="rgb(38.876343%, 8.444214%, 95.623779%)" offset="0.550781"/><stop stop-opacity="1" stop-color="rgb(37.731934%, 8.843994%, 95.753479%)" offset="0.554688"/><stop stop-opacity="1" stop-color="rgb(36.587524%, 9.242249%, 95.881653%)" offset="0.558594"/><stop stop-opacity="1" stop-color="rgb(35.444641%, 9.642029%, 96.011353%)" offset="0.5625"/><stop stop-opacity="1" stop-color="rgb(34.300232%, 10.040283%, 96.139526%)" offset="0.566406"/><stop stop-opacity="1" stop-color="rgb(33.155823%, 10.438538%, 96.269226%)" offset="0.570312"/><stop stop-opacity="1" stop-color="rgb(32.011414%, 10.836792%, 96.3974%)" offset="0.574219"/><stop stop-opacity="1" stop-color="rgb(30.867004%, 11.236572%, 96.525574%)" offset="0.578125"/><stop stop-opacity="1" stop-color="rgb(29.722595%, 11.634827%, 96.653748%)" offset="0.582031"/><stop stop-opacity="1" stop-color="rgb(28.578186%, 12.034607%, 96.783447%)" offset="0.585938"/><stop stop-opacity="1" stop-color="rgb(27.433777%, 12.432861%, 96.911621%)" offset="0.589844"/><stop stop-opacity="1" stop-color="rgb(26.290894%, 12.832642%, 97.041321%)" offset="0.59375"/><stop stop-opacity="1" stop-color="rgb(25.146484%, 13.230896%, 97.169495%)" offset="0.597656"/><stop stop-opacity="1" stop-color="rgb(24.002075%, 13.630676%, 97.299194%)" offset="0.601562"/><stop stop-opacity="1" stop-color="rgb(22.857666%, 14.028931%, 97.427368%)" offset="0.605469"/><stop stop-opacity="1" stop-color="rgb(21.713257%, 14.428711%, 97.555542%)" offset="0.609375"/><stop stop-opacity="1" stop-color="rgb(20.568848%, 14.826965%, 97.683716%)" offset="0.613281"/><stop stop-opacity="1" stop-color="rgb(19.425964%, 15.226746%, 97.813416%)" offset="0.617188"/><stop stop-opacity="1" stop-color="rgb(18.281555%, 15.625%, 97.941589%)" offset="0.621094"/><stop stop-opacity="1" stop-color="rgb(17.137146%, 16.02478%, 98.071289%)" offset="0.625"/><stop stop-opacity="1" stop-color="rgb(15.992737%, 16.423035%, 98.199463%)" offset="0.628906"/><stop stop-opacity="1" stop-color="rgb(14.848328%, 16.821289%, 98.327637%)" offset="0.632812"/><stop stop-opacity="1" stop-color="rgb(13.703918%, 17.219543%, 98.455811%)" offset="0.636719"/><stop stop-opacity="1" stop-color="rgb(12.561035%, 17.619324%, 98.58551%)" offset="0.640625"/><stop stop-opacity="1" stop-color="rgb(11.416626%, 18.017578%, 98.713684%)" offset="0.644531"/><stop stop-opacity="1" stop-color="rgb(10.272217%, 18.417358%, 98.843384%)" offset="0.648438"/><stop stop-opacity="1" stop-color="rgb(9.127808%, 18.815613%, 98.971558%)" offset="0.652344"/><stop stop-opacity="1" stop-color="rgb(7.983398%, 19.215393%, 99.101257%)" offset="0.65625"/><stop stop-opacity="1" stop-color="rgb(6.838989%, 19.613647%, 99.229431%)" offset="0.660156"/><stop stop-opacity="1" stop-color="rgb(5.69458%, 20.013428%, 99.357605%)" offset="0.664062"/><stop stop-opacity="1" stop-color="rgb(4.550171%, 20.411682%, 99.485779%)" offset="0.667969"/><stop stop-opacity="1" stop-color="rgb(3.407288%, 20.811462%, 99.615479%)" offset="0.671875"/><stop stop-opacity="1" stop-color="rgb(2.262878%, 21.209717%, 99.743652%)" offset="0.675781"/><stop stop-opacity="1" stop-color="rgb(1.118469%, 21.609497%, 99.873352%)" offset="0.679688"/><stop stop-opacity="1" stop-color="rgb(0.558472%, 21.803284%, 99.935913%)" offset="0.683594"/><stop stop-opacity="1" stop-color="rgb(0%, 21.998596%, 100%)" offset="0.6875"/><stop stop-opacity="1" stop-color="rgb(0%, 21.998596%, 100%)" offset="0.75"/><stop stop-opacity="1" stop-color="rgb(0%, 21.998596%, 100%)" offset="1"/></linearGradient><clipPath id="c945589939"><path d="M 18 10 L 28 10 L 28 17 L 18 17 Z M 18 10 " clip-rule="nonzero"/></clipPath><clipPath id="1f3f684c58"><path d="M 21.957031 19.152344 L 16.039062 13.230469 L 21.636719 7.636719 L 27.554688 13.554688 Z M 21.957031 19.152344 " clip-rule="nonzero"/></clipPath><clipPath id="a5fd900299"><path d="M 21.957031 19.152344 L 16.039062 13.230469 L 21.636719 7.636719 L 27.554688 13.554688 Z M 21.957031 19.152344 " clip-rule="nonzero"/></clipPath><clipPath id="0bfed320b7"><path d="M 23.257812 13.953125 L 18.917969 13.953125 L 18.917969 14.3125 L 23.257812 14.3125 Z M 18.914062 10.707031 L 21.960938 10.707031 L 21.960938 10.34375 L 18.914062 10.347656 Z M 18.917969 11.605469 L 24.058594 11.605469 L 24.058594 11.246094 L 18.917969 11.246094 Z M 18.921875 15.753906 L 18.921875 16.113281 L 24.738281 16.113281 L 24.738281 15.753906 Z M 18.917969 15.214844 L 25.886719 15.214844 L 25.886719 14.855469 L 18.921875 14.851562 Z M 18.914062 12.511719 L 25.605469 12.507812 L 25.605469 12.148438 L 18.917969 12.148438 Z M 18.917969 13.410156 L 27.046875 13.410156 L 27.046875 13.050781 L 18.917969 13.050781 Z M 18.917969 13.410156 " clip-rule="nonzero"/></clipPath><linearGradient x1="-3630.180725" gradientTransform="matrix(0.0475325, 0, 0, 0.0475325, 191.46616, -139.611885)" y1="3215.53" x2="-3459.067957" gradientUnits="userSpaceOnUse" y2="3215.53" id="b493d15090"><stop stop-opacity="1" stop-color="rgb(54.899597%, 0%, 92.89856%)" offset="0"/><stop stop-opacity="1" stop-color="rgb(55.039978%, 0.349426%, 92.875671%)" offset="0.00390625"/><stop stop-opacity="1" stop-color="rgb(55.180359%, 0.700378%, 92.854309%)" offset="0.0078125"/><stop stop-opacity="1" stop-color="rgb(55.32074%, 1.051331%, 92.831421%)" offset="0.0117187"/><stop stop-opacity="1" stop-color="rgb(55.462646%, 1.402283%, 92.808533%)" offset="0.015625"/><stop stop-opacity="1" stop-color="rgb(55.603027%, 1.753235%, 92.785645%)" offset="0.0195312"/><stop stop-opacity="1" stop-color="rgb(55.744934%, 2.104187%, 92.762756%)" offset="0.0234375"/><stop stop-opacity="1" stop-color="rgb(55.885315%, 2.453613%, 92.739868%)" offset="0.0273437"/><stop stop-opacity="1" stop-color="rgb(56.027222%, 2.804565%, 92.718506%)" offset="0.03125"/><stop stop-opacity="1" stop-color="rgb(56.167603%, 3.155518%, 92.695618%)" offset="0.0351562"/><stop stop-opacity="1" stop-color="rgb(56.309509%, 3.50647%, 92.672729%)" offset="0.0390625"/><stop stop-opacity="1" stop-color="rgb(56.44989%, 3.857422%, 92.649841%)" offset="0.0429688"/><stop stop-opacity="1" stop-color="rgb(56.591797%, 4.208374%, 92.626953%)" offset="0.046875"/><stop stop-opacity="1" stop-color="rgb(56.732178%, 4.559326%, 92.604065%)" offset="0.0507812"/><stop stop-opacity="1" stop-color="rgb(56.874084%, 4.910278%, 92.582703%)" offset="0.0546875"/><stop stop-opacity="1" stop-color="rgb(57.014465%, 5.26123%, 92.559814%)" offset="0.0585937"/><stop stop-opacity="1" stop-color="rgb(57.154846%, 5.612183%, 92.536926%)" offset="0.0625"/><stop stop-opacity="1" stop-color="rgb(57.295227%, 5.963135%, 92.514038%)" offset="0.0664062"/><stop stop-opacity="1" stop-color="rgb(57.437134%, 6.314087%, 92.49115%)" offset="0.0703125"/><stop stop-opacity="1" stop-color="rgb(57.577515%, 6.663513%, 92.468262%)" offset="0.0742187"/><stop stop-opacity="1" stop-color="rgb(57.719421%, 7.014465%, 92.445374%)" offset="0.078125"/><stop stop-opacity="1" stop-color="rgb(57.859802%, 7.365417%, 92.422485%)" offset="0.0820312"/><stop stop-opacity="1" stop-color="rgb(58.001709%, 7.71637%, 92.401123%)" offset="0.0859375"/><stop stop-opacity="1" stop-color="rgb(58.14209%, 8.067322%, 92.378235%)" offset="0.0898437"/><stop stop-opacity="1" stop-color="rgb(58.283997%, 8.418274%, 92.355347%)" offset="0.09375"/><stop stop-opacity="1" stop-color="rgb(58.424377%, 8.769226%, 92.332458%)" offset="0.0976562"/><stop stop-opacity="1" stop-color="rgb(58.566284%, 9.120178%, 92.30957%)" offset="0.101562"/><stop stop-opacity="1" stop-color="rgb(58.706665%, 9.47113%, 92.286682%)" offset="0.105469"/><stop stop-opacity="1" stop-color="rgb(58.847046%, 9.822083%, 92.26532%)" offset="0.109375"/><stop stop-opacity="1" stop-color="rgb(58.987427%, 10.171509%, 92.242432%)" offset="0.113281"/><stop stop-opacity="1" stop-color="rgb(59.129333%, 10.522461%, 92.219543%)" offset="0.117187"/><stop stop-opacity="1" stop-color="rgb(59.269714%, 10.873413%, 92.196655%)" offset="0.121094"/><stop stop-opacity="1" stop-color="rgb(59.411621%, 11.224365%, 92.173767%)" offset="0.125"/><stop stop-opacity="1" stop-color="rgb(59.552002%, 11.575317%, 92.150879%)" offset="0.128906"/><stop stop-opacity="1" stop-color="rgb(59.693909%, 11.92627%, 92.129517%)" offset="0.132812"/><stop stop-opacity="1" stop-color="rgb(59.83429%, 12.277222%, 92.106628%)" offset="0.136719"/><stop stop-opacity="1" stop-color="rgb(59.976196%, 12.628174%, 92.08374%)" offset="0.140625"/><stop stop-opacity="1" stop-color="rgb(60.116577%, 12.979126%, 92.060852%)" offset="0.144531"/><stop stop-opacity="1" stop-color="rgb(60.258484%, 13.330078%, 92.037964%)" offset="0.148437"/><stop stop-opacity="1" stop-color="rgb(60.398865%, 13.679504%, 92.015076%)" offset="0.152344"/><stop stop-opacity="1" stop-color="rgb(60.540771%, 14.030457%, 91.992188%)" offset="0.15625"/><stop stop-opacity="1" stop-color="rgb(60.681152%, 14.381409%, 91.969299%)" offset="0.160156"/><stop stop-opacity="1" stop-color="rgb(60.821533%, 14.732361%, 91.947937%)" offset="0.164062"/><stop stop-opacity="1" stop-color="rgb(60.961914%, 15.083313%, 91.925049%)" offset="0.167969"/><stop stop-opacity="1" stop-color="rgb(61.103821%, 15.434265%, 91.902161%)" offset="0.171875"/><stop stop-opacity="1" stop-color="rgb(61.244202%, 15.785217%, 91.879272%)" offset="0.175781"/><stop stop-opacity="1" stop-color="rgb(61.386108%, 16.136169%, 91.856384%)" offset="0.179687"/><stop stop-opacity="1" stop-color="rgb(61.526489%, 16.487122%, 91.833496%)" offset="0.183594"/><stop stop-opacity="1" stop-color="rgb(61.668396%, 16.838074%, 91.812134%)" offset="0.1875"/><stop stop-opacity="1" stop-color="rgb(61.808777%, 17.1875%, 91.789246%)" offset="0.191406"/><stop stop-opacity="1" stop-color="rgb(61.950684%, 17.538452%, 91.766357%)" offset="0.195312"/><stop stop-opacity="1" stop-color="rgb(62.091064%, 17.889404%, 91.743469%)" offset="0.199219"/><stop stop-opacity="1" stop-color="rgb(62.232971%, 18.240356%, 91.720581%)" offset="0.203125"/><stop stop-opacity="1" stop-color="rgb(62.373352%, 18.591309%, 91.697693%)" offset="0.207031"/><stop stop-opacity="1" stop-color="rgb(62.513733%, 18.942261%, 91.676331%)" offset="0.210937"/><stop stop-opacity="1" stop-color="rgb(62.654114%, 19.293213%, 91.653442%)" offset="0.214844"/><stop stop-opacity="1" stop-color="rgb(62.796021%, 19.644165%, 91.630554%)" offset="0.21875"/><stop stop-opacity="1" stop-color="rgb(62.936401%, 19.995117%, 91.607666%)" offset="0.222656"/><stop stop-opacity="1" stop-color="rgb(63.078308%, 20.346069%, 91.584778%)" offset="0.226562"/><stop stop-opacity="1" stop-color="rgb(63.218689%, 20.697021%, 91.56189%)" offset="0.230469"/><stop stop-opacity="1" stop-color="rgb(63.360596%, 21.047974%, 91.540527%)" offset="0.234375"/><stop stop-opacity="1" stop-color="rgb(63.500977%, 21.3974%, 91.517639%)" offset="0.238281"/><stop stop-opacity="1" stop-color="rgb(63.642883%, 21.748352%, 91.494751%)" offset="0.242187"/><stop stop-opacity="1" stop-color="rgb(63.783264%, 22.099304%, 91.471863%)" offset="0.246094"/><stop stop-opacity="1" stop-color="rgb(63.925171%, 22.450256%, 91.448975%)" offset="0.25"/><stop stop-opacity="1" stop-color="rgb(64.065552%, 22.801208%, 91.426086%)" offset="0.253906"/><stop stop-opacity="1" stop-color="rgb(64.207458%, 23.152161%, 91.403198%)" offset="0.257812"/><stop stop-opacity="1" stop-color="rgb(64.347839%, 23.503113%, 91.38031%)" offset="0.261719"/><stop stop-opacity="1" stop-color="rgb(64.48822%, 23.854065%, 91.358948%)" offset="0.265625"/><stop stop-opacity="1" stop-color="rgb(64.628601%, 24.205017%, 91.33606%)" offset="0.269531"/><stop stop-opacity="1" stop-color="rgb(64.770508%, 24.555969%, 91.313171%)" offset="0.273437"/><stop stop-opacity="1" stop-color="rgb(64.910889%, 24.905396%, 91.290283%)" offset="0.277344"/><stop stop-opacity="1" stop-color="rgb(65.052795%, 25.256348%, 91.267395%)" offset="0.28125"/><stop stop-opacity="1" stop-color="rgb(65.193176%, 25.6073%, 91.244507%)" offset="0.285156"/><stop stop-opacity="1" stop-color="rgb(65.335083%, 25.958252%, 91.223145%)" offset="0.289062"/><stop stop-opacity="1" stop-color="rgb(65.475464%, 26.309204%, 91.200256%)" offset="0.292969"/><stop stop-opacity="1" stop-color="rgb(65.617371%, 26.660156%, 91.177368%)" offset="0.296875"/><stop stop-opacity="1" stop-color="rgb(65.757751%, 27.011108%, 91.15448%)" offset="0.300781"/><stop stop-opacity="1" stop-color="rgb(65.899658%, 27.362061%, 91.131592%)" offset="0.304687"/><stop stop-opacity="1" stop-color="rgb(66.040039%, 27.713013%, 91.108704%)" offset="0.308594"/><stop stop-opacity="1" stop-color="rgb(66.18042%, 28.063965%, 91.087341%)" offset="0.3125"/><stop stop-opacity="1" stop-color="rgb(66.320801%, 28.413391%, 91.064453%)" offset="0.316406"/><stop stop-opacity="1" stop-color="rgb(66.462708%, 28.764343%, 91.041565%)" offset="0.320312"/><stop stop-opacity="1" stop-color="rgb(66.603088%, 29.115295%, 91.018677%)" offset="0.324219"/><stop stop-opacity="1" stop-color="rgb(66.744995%, 29.466248%, 90.995789%)" offset="0.328125"/><stop stop-opacity="1" stop-color="rgb(66.885376%, 29.8172%, 90.9729%)" offset="0.332031"/><stop stop-opacity="1" stop-color="rgb(67.027283%, 30.168152%, 90.950012%)" offset="0.335937"/><stop stop-opacity="1" stop-color="rgb(67.167664%, 30.519104%, 90.927124%)" offset="0.339844"/><stop stop-opacity="1" stop-color="rgb(67.30957%, 30.870056%, 90.905762%)" offset="0.34375"/><stop stop-opacity="1" stop-color="rgb(67.449951%, 31.221008%, 90.882874%)" offset="0.347656"/><stop stop-opacity="1" stop-color="rgb(67.591858%, 31.57196%, 90.859985%)" offset="0.351562"/><stop stop-opacity="1" stop-color="rgb(67.732239%, 31.922913%, 90.837097%)" offset="0.355469"/><stop stop-opacity="1" stop-color="rgb(67.874146%, 32.273865%, 90.814209%)" offset="0.359375"/><stop stop-opacity="1" stop-color="rgb(68.014526%, 32.623291%, 90.791321%)" offset="0.363281"/><stop stop-opacity="1" stop-color="rgb(68.154907%, 32.974243%, 90.769958%)" offset="0.367187"/><stop stop-opacity="1" stop-color="rgb(68.295288%, 33.325195%, 90.74707%)" offset="0.371094"/><stop stop-opacity="1" stop-color="rgb(68.437195%, 33.676147%, 90.724182%)" offset="0.375"/><stop stop-opacity="1" stop-color="rgb(68.577576%, 34.0271%, 90.701294%)" offset="0.378906"/><stop stop-opacity="1" stop-color="rgb(68.719482%, 34.378052%, 90.678406%)" offset="0.382812"/><stop stop-opacity="1" stop-color="rgb(68.859863%, 34.729004%, 90.655518%)" offset="0.386719"/><stop stop-opacity="1" stop-color="rgb(69.00177%, 35.079956%, 90.634155%)" offset="0.390625"/><stop stop-opacity="1" stop-color="rgb(69.142151%, 35.430908%, 90.611267%)" offset="0.394531"/><stop stop-opacity="1" stop-color="rgb(69.284058%, 35.78186%, 90.588379%)" offset="0.398437"/><stop stop-opacity="1" stop-color="rgb(69.424438%, 36.131287%, 90.565491%)" offset="0.402344"/><stop stop-opacity="1" stop-color="rgb(69.566345%, 36.482239%, 90.542603%)" offset="0.40625"/><stop stop-opacity="1" stop-color="rgb(69.706726%, 36.833191%, 90.519714%)" offset="0.410156"/><stop stop-opacity="1" stop-color="rgb(69.847107%, 37.184143%, 90.496826%)" offset="0.414062"/><stop stop-opacity="1" stop-color="rgb(69.987488%, 37.535095%, 90.473938%)" offset="0.417969"/><stop stop-opacity="1" stop-color="rgb(70.129395%, 37.886047%, 90.452576%)" offset="0.421875"/><stop stop-opacity="1" stop-color="rgb(70.269775%, 38.237%, 90.429688%)" offset="0.425781"/><stop stop-opacity="1" stop-color="rgb(70.411682%, 38.587952%, 90.406799%)" offset="0.429687"/><stop stop-opacity="1" stop-color="rgb(70.552063%, 38.938904%, 90.383911%)" offset="0.433594"/><stop stop-opacity="1" stop-color="rgb(70.69397%, 39.289856%, 90.361023%)" offset="0.4375"/><stop stop-opacity="1" stop-color="rgb(70.834351%, 39.639282%, 90.338135%)" offset="0.441406"/><stop stop-opacity="1" stop-color="rgb(70.976257%, 39.990234%, 90.316772%)" offset="0.445312"/><stop stop-opacity="1" stop-color="rgb(71.116638%, 40.341187%, 90.293884%)" offset="0.449219"/><stop stop-opacity="1" stop-color="rgb(71.258545%, 40.692139%, 90.270996%)" offset="0.453125"/><stop stop-opacity="1" stop-color="rgb(71.398926%, 41.043091%, 90.248108%)" offset="0.457031"/><stop stop-opacity="1" stop-color="rgb(71.540833%, 41.394043%, 90.22522%)" offset="0.460937"/><stop stop-opacity="1" stop-color="rgb(71.681213%, 41.744995%, 90.202332%)" offset="0.464844"/><stop stop-opacity="1" stop-color="rgb(71.821594%, 42.095947%, 90.180969%)" offset="0.46875"/><stop stop-opacity="1" stop-color="rgb(71.961975%, 42.446899%, 90.158081%)" offset="0.472656"/><stop stop-opacity="1" stop-color="rgb(72.103882%, 42.797852%, 90.135193%)" offset="0.476562"/><stop stop-opacity="1" stop-color="rgb(72.244263%, 43.147278%, 90.112305%)" offset="0.480469"/><stop stop-opacity="1" stop-color="rgb(72.386169%, 43.49823%, 90.089417%)" offset="0.484375"/><stop stop-opacity="1" stop-color="rgb(72.52655%, 43.849182%, 90.066528%)" offset="0.488281"/><stop stop-opacity="1" stop-color="rgb(72.668457%, 44.200134%, 90.04364%)" offset="0.492187"/><stop stop-opacity="1" stop-color="rgb(72.808838%, 44.551086%, 90.020752%)" offset="0.496094"/><stop stop-opacity="1" stop-color="rgb(72.950745%, 44.902039%, 89.99939%)" offset="0.5"/><stop stop-opacity="1" stop-color="rgb(73.091125%, 45.252991%, 89.976501%)" offset="0.503906"/><stop stop-opacity="1" stop-color="rgb(73.233032%, 45.603943%, 89.953613%)" offset="0.507812"/><stop stop-opacity="1" stop-color="rgb(73.373413%, 45.954895%, 89.930725%)" offset="0.511719"/><stop stop-opacity="1" stop-color="rgb(73.513794%, 46.305847%, 89.907837%)" offset="0.515625"/><stop stop-opacity="1" stop-color="rgb(73.654175%, 46.656799%, 89.884949%)" offset="0.519531"/><stop stop-opacity="1" stop-color="rgb(73.796082%, 47.007751%, 89.863586%)" offset="0.523437"/><stop stop-opacity="1" stop-color="rgb(73.936462%, 47.357178%, 89.840698%)" offset="0.527344"/><stop stop-opacity="1" stop-color="rgb(74.078369%, 47.70813%, 89.81781%)" offset="0.53125"/><stop stop-opacity="1" stop-color="rgb(74.21875%, 48.059082%, 89.794922%)" offset="0.535156"/><stop stop-opacity="1" stop-color="rgb(74.360657%, 48.410034%, 89.772034%)" offset="0.539062"/><stop stop-opacity="1" stop-color="rgb(74.501038%, 48.760986%, 89.749146%)" offset="0.542969"/><stop stop-opacity="1" stop-color="rgb(74.642944%, 49.111938%, 89.727783%)" offset="0.546875"/><stop stop-opacity="1" stop-color="rgb(74.783325%, 49.462891%, 89.704895%)" offset="0.550781"/><stop stop-opacity="1" stop-color="rgb(74.925232%, 49.813843%, 89.682007%)" offset="0.554687"/><stop stop-opacity="1" stop-color="rgb(75.065613%, 50.164795%, 89.659119%)" offset="0.558594"/><stop stop-opacity="1" stop-color="rgb(75.20752%, 50.515747%, 89.63623%)" offset="0.5625"/><stop stop-opacity="1" stop-color="rgb(75.3479%, 50.865173%, 89.613342%)" offset="0.566406"/><stop stop-opacity="1" stop-color="rgb(75.488281%, 51.216125%, 89.590454%)" offset="0.570312"/><stop stop-opacity="1" stop-color="rgb(75.628662%, 51.567078%, 89.567566%)" offset="0.574219"/><stop stop-opacity="1" stop-color="rgb(75.770569%, 51.91803%, 89.546204%)" offset="0.578125"/><stop stop-opacity="1" stop-color="rgb(75.91095%, 52.268982%, 89.523315%)" offset="0.582031"/><stop stop-opacity="1" stop-color="rgb(76.052856%, 52.619934%, 89.500427%)" offset="0.585937"/><stop stop-opacity="1" stop-color="rgb(76.193237%, 52.970886%, 89.477539%)" offset="0.589844"/><stop stop-opacity="1" stop-color="rgb(76.335144%, 53.321838%, 89.454651%)" offset="0.59375"/><stop stop-opacity="1" stop-color="rgb(76.475525%, 53.672791%, 89.431763%)" offset="0.597656"/><stop stop-opacity="1" stop-color="rgb(76.617432%, 54.023743%, 89.4104%)" offset="0.601562"/><stop stop-opacity="1" stop-color="rgb(76.757812%, 54.373169%, 89.387512%)" offset="0.605469"/><stop stop-opacity="1" stop-color="rgb(76.899719%, 54.724121%, 89.364624%)" offset="0.609375"/><stop stop-opacity="1" stop-color="rgb(77.0401%, 55.075073%, 89.341736%)" offset="0.613281"/><stop stop-opacity="1" stop-color="rgb(77.180481%, 55.426025%, 89.318848%)" offset="0.617187"/><stop stop-opacity="1" stop-color="rgb(77.320862%, 55.776978%, 89.295959%)" offset="0.621094"/><stop stop-opacity="1" stop-color="rgb(77.462769%, 56.12793%, 89.274597%)" offset="0.625"/><stop stop-opacity="1" stop-color="rgb(77.603149%, 56.478882%, 89.251709%)" offset="0.628906"/><stop stop-opacity="1" stop-color="rgb(77.745056%, 56.829834%, 89.228821%)" offset="0.632812"/><stop stop-opacity="1" stop-color="rgb(77.885437%, 57.180786%, 89.205933%)" offset="0.636719"/><stop stop-opacity="1" stop-color="rgb(78.027344%, 57.531738%, 89.183044%)" offset="0.640625"/><stop stop-opacity="1" stop-color="rgb(78.167725%, 57.88269%, 89.160156%)" offset="0.644531"/><stop stop-opacity="1" stop-color="rgb(78.309631%, 58.233643%, 89.138794%)" offset="0.648437"/><stop stop-opacity="1" stop-color="rgb(78.450012%, 58.583069%, 89.115906%)" offset="0.652344"/><stop stop-opacity="1" stop-color="rgb(78.591919%, 58.934021%, 89.093018%)" offset="0.65625"/><stop stop-opacity="1" stop-color="rgb(78.7323%, 59.284973%, 89.070129%)" offset="0.660156"/><stop stop-opacity="1" stop-color="rgb(78.874207%, 59.635925%, 89.047241%)" offset="0.664062"/><stop stop-opacity="1" stop-color="rgb(79.014587%, 59.986877%, 89.024353%)" offset="0.667969"/><stop stop-opacity="1" stop-color="rgb(79.154968%, 60.33783%, 89.001465%)" offset="0.671875"/><stop stop-opacity="1" stop-color="rgb(79.295349%, 60.688782%, 88.978577%)" offset="0.675781"/><stop stop-opacity="1" stop-color="rgb(79.437256%, 61.039734%, 88.957214%)" offset="0.679687"/><stop stop-opacity="1" stop-color="rgb(79.577637%, 61.390686%, 88.934326%)" offset="0.683594"/><stop stop-opacity="1" stop-color="rgb(79.719543%, 61.741638%, 88.911438%)" offset="0.6875"/><stop stop-opacity="1" stop-color="rgb(79.859924%, 62.091064%, 88.88855%)" offset="0.691406"/><stop stop-opacity="1" stop-color="rgb(80.001831%, 62.442017%, 88.865662%)" offset="0.695312"/><stop stop-opacity="1" stop-color="rgb(80.142212%, 62.792969%, 88.842773%)" offset="0.699219"/><stop stop-opacity="1" stop-color="rgb(80.284119%, 63.143921%, 88.821411%)" offset="0.703125"/><stop stop-opacity="1" stop-color="rgb(80.4245%, 63.494873%, 88.798523%)" offset="0.707031"/><stop stop-opacity="1" stop-color="rgb(80.566406%, 63.845825%, 88.775635%)" offset="0.710937"/><stop stop-opacity="1" stop-color="rgb(80.706787%, 64.196777%, 88.752747%)" offset="0.714844"/><stop stop-opacity="1" stop-color="rgb(80.847168%, 64.547729%, 88.729858%)" offset="0.71875"/><stop stop-opacity="1" stop-color="rgb(80.987549%, 64.898682%, 88.70697%)" offset="0.722656"/><stop stop-opacity="1" stop-color="rgb(81.129456%, 65.249634%, 88.685608%)" offset="0.726562"/><stop stop-opacity="1" stop-color="rgb(81.269836%, 65.59906%, 88.66272%)" offset="0.730469"/><stop stop-opacity="1" stop-color="rgb(81.411743%, 65.950012%, 88.639832%)" offset="0.734375"/><stop stop-opacity="1" stop-color="rgb(81.552124%, 66.300964%, 88.616943%)" offset="0.738281"/><stop stop-opacity="1" stop-color="rgb(81.694031%, 66.651917%, 88.594055%)" offset="0.742187"/><stop stop-opacity="1" stop-color="rgb(81.834412%, 67.002869%, 88.571167%)" offset="0.746094"/><stop stop-opacity="1" stop-color="rgb(81.976318%, 67.353821%, 88.548279%)" offset="0.75"/><stop stop-opacity="1" stop-color="rgb(82.116699%, 67.704773%, 88.525391%)" offset="0.753906"/><stop stop-opacity="1" stop-color="rgb(82.258606%, 68.055725%, 88.504028%)" offset="0.757812"/><stop stop-opacity="1" stop-color="rgb(82.398987%, 68.406677%, 88.48114%)" offset="0.761719"/><stop stop-opacity="1" stop-color="rgb(82.540894%, 68.757629%, 88.458252%)" offset="0.765625"/><stop stop-opacity="1" stop-color="rgb(82.681274%, 69.107056%, 88.435364%)" offset="0.769531"/><stop stop-opacity="1" stop-color="rgb(82.821655%, 69.458008%, 88.412476%)" offset="0.773437"/><stop stop-opacity="1" stop-color="rgb(82.962036%, 69.80896%, 88.389587%)" offset="0.777344"/><stop stop-opacity="1" stop-color="rgb(83.103943%, 70.159912%, 88.368225%)" offset="0.78125"/><stop stop-opacity="1" stop-color="rgb(83.244324%, 70.510864%, 88.345337%)" offset="0.785156"/><stop stop-opacity="1" stop-color="rgb(83.38623%, 70.861816%, 88.322449%)" offset="0.789062"/><stop stop-opacity="1" stop-color="rgb(83.526611%, 71.212769%, 88.299561%)" offset="0.792969"/><stop stop-opacity="1" stop-color="rgb(83.668518%, 71.563721%, 88.276672%)" offset="0.796875"/><stop stop-opacity="1" stop-color="rgb(83.808899%, 71.914673%, 88.253784%)" offset="0.800781"/><stop stop-opacity="1" stop-color="rgb(83.950806%, 72.265625%, 88.232422%)" offset="0.804687"/><stop stop-opacity="1" stop-color="rgb(84.091187%, 72.616577%, 88.209534%)" offset="0.808594"/><stop stop-opacity="1" stop-color="rgb(84.233093%, 72.967529%, 88.186646%)" offset="0.8125"/><stop stop-opacity="1" stop-color="rgb(84.373474%, 73.316956%, 88.163757%)" offset="0.816406"/><stop stop-opacity="1" stop-color="rgb(84.513855%, 73.667908%, 88.140869%)" offset="0.820312"/><stop stop-opacity="1" stop-color="rgb(84.654236%, 74.01886%, 88.117981%)" offset="0.824219"/><stop stop-opacity="1" stop-color="rgb(84.796143%, 74.369812%, 88.095093%)" offset="0.828125"/><stop stop-opacity="1" stop-color="rgb(84.936523%, 74.720764%, 88.072205%)" offset="0.832031"/><stop stop-opacity="1" stop-color="rgb(85.07843%, 75.071716%, 88.050842%)" offset="0.835937"/><stop stop-opacity="1" stop-color="rgb(85.218811%, 75.422668%, 88.027954%)" offset="0.839844"/><stop stop-opacity="1" stop-color="rgb(85.360718%, 75.773621%, 88.005066%)" offset="0.84375"/><stop stop-opacity="1" stop-color="rgb(85.501099%, 76.124573%, 87.982178%)" offset="0.847656"/><stop stop-opacity="1" stop-color="rgb(85.643005%, 76.475525%, 87.95929%)" offset="0.851562"/><stop stop-opacity="1" stop-color="rgb(85.783386%, 76.824951%, 87.936401%)" offset="0.855469"/><stop stop-opacity="1" stop-color="rgb(85.925293%, 77.175903%, 87.915039%)" offset="0.859375"/><stop stop-opacity="1" stop-color="rgb(86.065674%, 77.526855%, 87.892151%)" offset="0.863281"/><stop stop-opacity="1" stop-color="rgb(86.207581%, 77.877808%, 87.869263%)" offset="0.867187"/><stop stop-opacity="1" stop-color="rgb(86.347961%, 78.22876%, 87.846375%)" offset="0.871094"/><stop stop-opacity="1" stop-color="rgb(86.488342%, 78.579712%, 87.823486%)" offset="0.875"/><stop stop-opacity="1" stop-color="rgb(86.628723%, 78.930664%, 87.800598%)" offset="0.878906"/><stop stop-opacity="1" stop-color="rgb(86.77063%, 79.281616%, 87.779236%)" offset="0.882812"/><stop stop-opacity="1" stop-color="rgb(86.911011%, 79.632568%, 87.756348%)" offset="0.886719"/><stop stop-opacity="1" stop-color="rgb(87.052917%, 79.983521%, 87.733459%)" offset="0.890625"/><stop stop-opacity="1" stop-color="rgb(87.193298%, 80.332947%, 87.710571%)" offset="0.894531"/><stop stop-opacity="1" stop-color="rgb(87.335205%, 80.683899%, 87.687683%)" offset="0.898437"/><stop stop-opacity="1" stop-color="rgb(87.475586%, 81.034851%, 87.664795%)" offset="0.902344"/><stop stop-opacity="1" stop-color="rgb(87.617493%, 81.385803%, 87.641907%)" offset="0.90625"/><stop stop-opacity="1" stop-color="rgb(87.757874%, 81.736755%, 87.619019%)" offset="0.910156"/><stop stop-opacity="1" stop-color="rgb(87.89978%, 82.087708%, 87.597656%)" offset="0.914062"/><stop stop-opacity="1" stop-color="rgb(88.040161%, 82.43866%, 87.574768%)" offset="0.917969"/><stop stop-opacity="1" stop-color="rgb(88.180542%, 82.789612%, 87.55188%)" offset="0.921875"/><stop stop-opacity="1" stop-color="rgb(88.320923%, 83.140564%, 87.528992%)" offset="0.925781"/><stop stop-opacity="1" stop-color="rgb(88.46283%, 83.491516%, 87.506104%)" offset="0.929687"/><stop stop-opacity="1" stop-color="rgb(88.60321%, 83.842468%, 87.483215%)" offset="0.933594"/><stop stop-opacity="1" stop-color="rgb(88.745117%, 84.19342%, 87.461853%)" offset="0.9375"/><stop stop-opacity="1" stop-color="rgb(88.885498%, 84.542847%, 87.438965%)" offset="0.941406"/><stop stop-opacity="1" stop-color="rgb(89.027405%, 84.893799%, 87.416077%)" offset="0.945312"/><stop stop-opacity="1" stop-color="rgb(89.167786%, 85.244751%, 87.393188%)" offset="0.949219"/><stop stop-opacity="1" stop-color="rgb(89.309692%, 85.595703%, 87.3703%)" offset="0.953125"/><stop stop-opacity="1" stop-color="rgb(89.450073%, 85.946655%, 87.347412%)" offset="0.957031"/><stop stop-opacity="1" stop-color="rgb(89.59198%, 86.297607%, 87.32605%)" offset="0.960937"/><stop stop-opacity="1" stop-color="rgb(89.732361%, 86.64856%, 87.303162%)" offset="0.964844"/><stop stop-opacity="1" stop-color="rgb(89.874268%, 86.999512%, 87.280273%)" offset="0.96875"/><stop stop-opacity="1" stop-color="rgb(90.014648%, 87.350464%, 87.257385%)" offset="0.972656"/><stop stop-opacity="1" stop-color="rgb(90.155029%, 87.701416%, 87.234497%)" offset="0.976562"/><stop stop-opacity="1" stop-color="rgb(90.29541%, 88.050842%, 87.211609%)" offset="0.980469"/><stop stop-opacity="1" stop-color="rgb(90.437317%, 88.401794%, 87.188721%)" offset="0.984375"/><stop stop-opacity="1" stop-color="rgb(90.577698%, 88.752747%, 87.165833%)" offset="0.988281"/><stop stop-opacity="1" stop-color="rgb(90.719604%, 89.103699%, 87.14447%)" offset="0.992187"/><stop stop-opacity="1" stop-color="rgb(90.858459%, 89.451599%, 87.121582%)" offset="0.996094"/><stop stop-opacity="1" stop-color="rgb(90.99884%, 89.7995%, 87.098694%)" offset="1"/></linearGradient><clipPath id="adc5cbfd7a"><path d="M 11 1 L 20 1 L 20 26 L 11 26 Z M 11 1 " clip-rule="nonzero"/></clipPath><clipPath id="864d692ee2"><path d="M 13.253906 27.246094 L 0.644531 14.636719 L 13.511719 1.769531 L 26.121094 14.378906 Z M 13.253906 27.246094 " clip-rule="nonzero"/></clipPath><clipPath id="3f31bb29d9"><path d="M 13.253906 27.246094 L 0.644531 14.636719 L 13.511719 1.769531 L 26.121094 14.378906 Z M 13.253906 27.246094 " clip-rule="nonzero"/></clipPath><clipPath id="273a5c0acc"><path d="M 11.664062 20.816406 L 11.664062 21.171875 C 12.082031 21.171875 12.484375 21.09375 12.871094 20.933594 C 13.257812 20.773438 13.597656 20.546875 13.890625 20.25 C 14.1875 19.953125 14.414062 19.613281 14.574219 19.226562 C 14.734375 18.84375 14.816406 18.441406 14.816406 18.023438 L 14.816406 3.046875 L 14.457031 2.6875 L 14.457031 18.023438 C 14.457031 18.394531 14.386719 18.75 14.246094 19.089844 C 14.101562 19.433594 13.902344 19.734375 13.640625 19.996094 C 13.378906 20.257812 13.074219 20.460938 12.734375 20.601562 C 12.390625 20.742188 12.035156 20.816406 11.664062 20.816406 Z M 13.558594 18.023438 C 13.558594 18.277344 13.511719 18.515625 13.414062 18.75 C 13.316406 18.980469 13.179688 19.1875 13.003906 19.363281 C 12.824219 19.542969 12.621094 19.679688 12.390625 19.773438 C 12.15625 19.871094 11.914062 19.917969 11.664062 19.917969 L 11.664062 20.277344 C 11.964844 20.277344 12.25 20.21875 12.527344 20.105469 C 12.800781 19.992188 13.046875 19.828125 13.257812 19.617188 C 13.46875 19.40625 13.628906 19.164062 13.746094 18.886719 C 13.859375 18.609375 13.917969 18.324219 13.917969 18.023438 L 13.917969 2.148438 L 13.558594 1.789062 Z M 14.273438 20.632812 C 13.554688 21.355469 12.6875 21.714844 11.664062 21.710938 L 11.664062 22.070312 C 11.929688 22.070312 12.195312 22.046875 12.457031 21.992188 C 12.714844 21.941406 12.96875 21.863281 13.214844 21.761719 C 13.460938 21.660156 13.695312 21.535156 13.914062 21.386719 C 14.136719 21.242188 14.339844 21.074219 14.527344 20.886719 C 14.714844 20.699219 14.882812 20.492188 15.03125 20.273438 C 15.179688 20.050781 15.304688 19.816406 15.40625 19.570312 C 15.507812 19.328125 15.585938 19.074219 15.636719 18.8125 C 15.6875 18.550781 15.714844 18.289062 15.714844 18.023438 L 15.714844 3.945312 L 15.355469 3.585938 L 15.355469 18.023438 C 15.359375 19.042969 14.996094 19.914062 14.273438 20.632812 Z M 16.8125 23.171875 C 16.132812 23.855469 15.34375 24.382812 14.453125 24.75 C 13.558594 25.121094 12.632812 25.304688 11.664062 25.300781 L 11.664062 25.660156 C 12.167969 25.660156 12.664062 25.609375 13.15625 25.511719 C 13.648438 25.414062 14.125 25.269531 14.589844 25.078125 C 15.050781 24.886719 15.492188 24.652344 15.910156 24.371094 C 16.324219 24.09375 16.710938 23.777344 17.066406 23.421875 C 17.421875 23.070312 17.738281 22.683594 18.015625 22.265625 C 18.292969 21.847656 18.527344 21.410156 18.722656 20.945312 C 18.914062 20.480469 19.058594 20.003906 19.15625 19.511719 C 19.253906 19.019531 19.300781 18.523438 19.300781 18.023438 L 19.300781 7.53125 L 18.945312 7.175781 L 18.945312 18.023438 C 18.945312 18.988281 18.761719 19.917969 18.394531 20.808594 C 18.023438 21.703125 17.496094 22.488281 16.8125 23.171875 Z M 16.175781 22.535156 C 15.578125 23.132812 14.890625 23.597656 14.109375 23.921875 C 13.328125 24.246094 12.511719 24.40625 11.667969 24.40625 L 11.667969 24.765625 C 12.109375 24.765625 12.546875 24.722656 12.980469 24.632812 C 13.414062 24.546875 13.835938 24.421875 14.246094 24.25 C 14.65625 24.082031 15.042969 23.875 15.410156 23.628906 C 15.777344 23.382812 16.121094 23.101562 16.433594 22.789062 C 16.746094 22.476562 17.023438 22.136719 17.269531 21.769531 C 17.515625 21.402344 17.722656 21.011719 17.894531 20.605469 C 18.0625 20.195312 18.191406 19.773438 18.277344 19.339844 C 18.363281 18.90625 18.40625 18.46875 18.40625 18.023438 L 18.40625 6.636719 L 18.046875 6.277344 L 18.046875 18.023438 C 18.050781 18.871094 17.886719 19.683594 17.5625 20.46875 C 17.238281 21.25 16.777344 21.9375 16.175781 22.535156 Z M 15.539062 21.898438 C 15.027344 22.414062 14.433594 22.8125 13.761719 23.089844 C 13.089844 23.367188 12.390625 23.503906 11.660156 23.503906 L 11.664062 23.863281 C 12.050781 23.863281 12.429688 23.828125 12.804688 23.753906 C 13.179688 23.679688 13.546875 23.566406 13.902344 23.421875 C 14.253906 23.273438 14.59375 23.09375 14.910156 22.878906 C 15.230469 22.667969 15.523438 22.425781 15.796875 22.152344 C 16.066406 21.882812 16.308594 21.585938 16.523438 21.269531 C 16.734375 20.949219 16.917969 20.613281 17.0625 20.257812 C 17.210938 19.90625 17.320312 19.539062 17.394531 19.164062 C 17.46875 18.785156 17.507812 18.40625 17.507812 18.023438 L 17.507812 5.738281 L 17.148438 5.378906 L 17.148438 18.023438 C 17.152344 18.753906 17.011719 19.453125 16.734375 20.125 C 16.457031 20.796875 16.058594 21.386719 15.542969 21.902344 Z M 11.664062 22.609375 L 11.664062 22.96875 C 11.988281 22.96875 12.3125 22.9375 12.628906 22.871094 C 12.949219 22.808594 13.257812 22.714844 13.554688 22.589844 C 13.855469 22.464844 14.140625 22.3125 14.410156 22.132812 C 14.679688 21.953125 14.929688 21.746094 15.160156 21.519531 C 15.390625 21.289062 15.59375 21.039062 15.773438 20.769531 C 15.953125 20.5 16.105469 20.214844 16.230469 19.914062 C 16.355469 19.617188 16.449219 19.308594 16.511719 18.988281 C 16.578125 18.671875 16.609375 18.347656 16.609375 18.023438 L 16.609375 4.84375 L 16.25 4.484375 L 16.253906 18.023438 C 16.25 18.324219 16.222656 18.621094 16.164062 18.917969 C 16.105469 19.214844 16.015625 19.5 15.902344 19.777344 C 15.785156 20.054688 15.644531 20.320312 15.476562 20.570312 C 15.3125 20.820312 15.121094 21.050781 14.90625 21.265625 C 14.695312 21.476562 14.464844 21.667969 14.214844 21.835938 C 13.960938 22.003906 13.699219 22.144531 13.421875 22.257812 C 13.140625 22.375 12.855469 22.460938 12.558594 22.519531 C 12.265625 22.578125 11.96875 22.609375 11.664062 22.609375 Z M 11.664062 22.609375 " clip-rule="nonzero"/></clipPath><linearGradient x1="-50.472219" gradientTransform="matrix(-0.0334548, -0.0334548, 0.0334548, -0.0334548, 13.247141, 27.241454)" y1="-13.518019" x2="370.332698" gradientUnits="userSpaceOnUse" y2="498.601316" id="1f0b0723ac"><stop stop-opacity="1" stop-color="rgb(0%, 18.798828%, 100%)" offset="0"/><stop stop-opacity="1" stop-color="rgb(0%, 18.798828%, 100%)" offset="0.25"/><stop stop-opacity="1" stop-color="rgb(0%, 18.798828%, 100%)" offset="0.3125"/><stop stop-opacity="1" stop-color="rgb(0%, 18.798828%, 100%)" offset="0.320312"/><stop stop-opacity="1" stop-color="rgb(0%, 19.113159%, 100%)" offset="0.324219"/><stop stop-opacity="1" stop-color="rgb(0%, 19.42749%, 100%)" offset="0.328125"/><stop stop-opacity="1" stop-color="rgb(0%, 19.978333%, 100%)" offset="0.332031"/><stop stop-opacity="1" stop-color="rgb(0%, 20.530701%, 100%)" offset="0.335938"/><stop stop-opacity="1" stop-color="rgb(0%, 21.081543%, 100%)" offset="0.339844"/><stop stop-opacity="1" stop-color="rgb(0%, 21.633911%, 100%)" offset="0.34375"/><stop stop-opacity="1" stop-color="rgb(0%, 22.184753%, 100%)" offset="0.347656"/><stop stop-opacity="1" stop-color="rgb(0%, 22.735596%, 100%)" offset="0.351562"/><stop stop-opacity="1" stop-color="rgb(0%, 23.286438%, 100%)" offset="0.355469"/><stop stop-opacity="1" stop-color="rgb(0%, 23.838806%, 100%)" offset="0.359375"/><stop stop-opacity="1" stop-color="rgb(0%, 24.389648%, 100%)" offset="0.363281"/><stop stop-opacity="1" stop-color="rgb(0%, 24.942017%, 100%)" offset="0.367188"/><stop stop-opacity="1" stop-color="rgb(0%, 25.492859%, 100%)" offset="0.371094"/><stop stop-opacity="1" stop-color="rgb(0%, 26.043701%, 100%)" offset="0.375"/><stop stop-opacity="1" stop-color="rgb(0%, 26.594543%, 100%)" offset="0.378906"/><stop stop-opacity="1" stop-color="rgb(0%, 27.146912%, 100%)" offset="0.382812"/><stop stop-opacity="1" stop-color="rgb(0%, 27.697754%, 100%)" offset="0.386719"/><stop stop-opacity="1" stop-color="rgb(0%, 28.250122%, 100%)" offset="0.390625"/><stop stop-opacity="1" stop-color="rgb(0%, 28.800964%, 100%)" offset="0.394531"/><stop stop-opacity="1" stop-color="rgb(0%, 29.351807%, 100%)" offset="0.398438"/><stop stop-opacity="1" stop-color="rgb(0%, 29.902649%, 100%)" offset="0.402344"/><stop stop-opacity="1" stop-color="rgb(0%, 30.455017%, 100%)" offset="0.40625"/><stop stop-opacity="1" stop-color="rgb(0%, 31.005859%, 100%)" offset="0.410156"/><stop stop-opacity="1" stop-color="rgb(0%, 31.558228%, 100%)" offset="0.414062"/><stop stop-opacity="1" stop-color="rgb(0%, 32.10907%, 100%)" offset="0.417969"/><stop stop-opacity="1" stop-color="rgb(0%, 32.659912%, 100%)" offset="0.421875"/><stop stop-opacity="1" stop-color="rgb(0%, 33.210754%, 100%)" offset="0.425781"/><stop stop-opacity="1" stop-color="rgb(0%, 33.763123%, 100%)" offset="0.429688"/><stop stop-opacity="1" stop-color="rgb(0%, 34.313965%, 100%)" offset="0.433594"/><stop stop-opacity="1" stop-color="rgb(0%, 34.866333%, 100%)" offset="0.4375"/><stop stop-opacity="1" stop-color="rgb(0%, 35.417175%, 100%)" offset="0.441406"/><stop stop-opacity="1" stop-color="rgb(0%, 35.968018%, 100%)" offset="0.445312"/><stop stop-opacity="1" stop-color="rgb(0%, 36.51886%, 100%)" offset="0.449219"/><stop stop-opacity="1" stop-color="rgb(0%, 37.071228%, 100%)" offset="0.453125"/><stop stop-opacity="1" stop-color="rgb(0%, 37.62207%, 100%)" offset="0.457031"/><stop stop-opacity="1" stop-color="rgb(0%, 38.174438%, 100%)" offset="0.460938"/><stop stop-opacity="1" stop-color="rgb(0%, 38.725281%, 100%)" offset="0.464844"/><stop stop-opacity="1" stop-color="rgb(0%, 39.276123%, 100%)" offset="0.46875"/><stop stop-opacity="1" stop-color="rgb(0%, 39.826965%, 100%)" offset="0.472656"/><stop stop-opacity="1" stop-color="rgb(0%, 40.379333%, 100%)" offset="0.476562"/><stop stop-opacity="1" stop-color="rgb(0%, 40.930176%, 100%)" offset="0.480469"/><stop stop-opacity="1" stop-color="rgb(0%, 41.482544%, 100%)" offset="0.484375"/><stop stop-opacity="1" stop-color="rgb(0%, 42.033386%, 100%)" offset="0.488281"/><stop stop-opacity="1" stop-color="rgb(0%, 42.584229%, 100%)" offset="0.492187"/><stop stop-opacity="1" stop-color="rgb(0%, 43.135071%, 100%)" offset="0.496094"/><stop stop-opacity="1" stop-color="rgb(0%, 43.687439%, 100%)" offset="0.5"/><stop stop-opacity="1" stop-color="rgb(0%, 44.238281%, 100%)" offset="0.503906"/><stop stop-opacity="1" stop-color="rgb(0%, 44.790649%, 100%)" offset="0.507812"/><stop stop-opacity="1" stop-color="rgb(0%, 45.341492%, 100%)" offset="0.511719"/><stop stop-opacity="1" stop-color="rgb(0%, 45.892334%, 100%)" offset="0.515625"/><stop stop-opacity="1" stop-color="rgb(0%, 46.443176%, 100%)" offset="0.519531"/><stop stop-opacity="1" stop-color="rgb(0%, 46.995544%, 100%)" offset="0.523438"/><stop stop-opacity="1" stop-color="rgb(0%, 47.546387%, 100%)" offset="0.527344"/><stop stop-opacity="1" stop-color="rgb(0%, 48.098755%, 100%)" offset="0.53125"/><stop stop-opacity="1" stop-color="rgb(0%, 48.649597%, 100%)" offset="0.535156"/><stop stop-opacity="1" stop-color="rgb(0%, 49.200439%, 100%)" offset="0.539062"/><stop stop-opacity="1" stop-color="rgb(0%, 49.751282%, 100%)" offset="0.542969"/><stop stop-opacity="1" stop-color="rgb(0%, 50.30365%, 100%)" offset="0.546875"/><stop stop-opacity="1" stop-color="rgb(0%, 50.854492%, 100%)" offset="0.550781"/><stop stop-opacity="1" stop-color="rgb(0%, 51.40686%, 100%)" offset="0.554688"/><stop stop-opacity="1" stop-color="rgb(0%, 51.957703%, 100%)" offset="0.558594"/><stop stop-opacity="1" stop-color="rgb(0%, 52.508545%, 100%)" offset="0.5625"/><stop stop-opacity="1" stop-color="rgb(0%, 53.059387%, 100%)" offset="0.566406"/><stop stop-opacity="1" stop-color="rgb(0%, 53.611755%, 100%)" offset="0.570312"/><stop stop-opacity="1" stop-color="rgb(0%, 54.162598%, 100%)" offset="0.574219"/><stop stop-opacity="1" stop-color="rgb(0%, 54.714966%, 100%)" offset="0.578125"/><stop stop-opacity="1" stop-color="rgb(0%, 55.265808%, 100%)" offset="0.582031"/><stop stop-opacity="1" stop-color="rgb(0%, 55.81665%, 100%)" offset="0.585938"/><stop stop-opacity="1" stop-color="rgb(0%, 56.367493%, 100%)" offset="0.589844"/><stop stop-opacity="1" stop-color="rgb(0%, 56.919861%, 100%)" offset="0.59375"/><stop stop-opacity="1" stop-color="rgb(0%, 57.470703%, 100%)" offset="0.597656"/><stop stop-opacity="1" stop-color="rgb(0%, 58.023071%, 100%)" offset="0.601562"/><stop stop-opacity="1" stop-color="rgb(0%, 58.573914%, 100%)" offset="0.605469"/><stop stop-opacity="1" stop-color="rgb(0%, 59.124756%, 100%)" offset="0.609375"/><stop stop-opacity="1" stop-color="rgb(0%, 59.675598%, 100%)" offset="0.613281"/><stop stop-opacity="1" stop-color="rgb(0%, 60.227966%, 100%)" offset="0.617188"/><stop stop-opacity="1" stop-color="rgb(0%, 60.778809%, 100%)" offset="0.621094"/><stop stop-opacity="1" stop-color="rgb(0%, 61.331177%, 100%)" offset="0.625"/><stop stop-opacity="1" stop-color="rgb(0%, 61.882019%, 100%)" offset="0.628906"/><stop stop-opacity="1" stop-color="rgb(0%, 62.434387%, 100%)" offset="0.632812"/><stop stop-opacity="1" stop-color="rgb(0%, 62.985229%, 100%)" offset="0.636719"/><stop stop-opacity="1" stop-color="rgb(0%, 63.536072%, 100%)" offset="0.640625"/><stop stop-opacity="1" stop-color="rgb(0%, 64.086914%, 100%)" offset="0.644531"/><stop stop-opacity="1" stop-color="rgb(0%, 64.639282%, 100%)" offset="0.648438"/><stop stop-opacity="1" stop-color="rgb(0%, 65.190125%, 100%)" offset="0.652344"/><stop stop-opacity="1" stop-color="rgb(0%, 65.742493%, 100%)" offset="0.65625"/><stop stop-opacity="1" stop-color="rgb(0%, 66.293335%, 100%)" offset="0.660156"/><stop stop-opacity="1" stop-color="rgb(0%, 66.844177%, 100%)" offset="0.664062"/><stop stop-opacity="1" stop-color="rgb(0%, 67.39502%, 100%)" offset="0.667969"/><stop stop-opacity="1" stop-color="rgb(0%, 67.947388%, 100%)" offset="0.671875"/><stop stop-opacity="1" stop-color="rgb(0%, 68.49823%, 100%)" offset="0.675781"/><stop stop-opacity="1" stop-color="rgb(0%, 69.050598%, 100%)" offset="0.679688"/><stop stop-opacity="1" stop-color="rgb(0%, 69.60144%, 100%)" offset="0.683594"/><stop stop-opacity="1" stop-color="rgb(0%, 70.152283%, 100%)" offset="0.6875"/><stop stop-opacity="1" stop-color="rgb(0%, 70.703125%, 100%)" offset="0.691406"/><stop stop-opacity="1" stop-color="rgb(0%, 71.255493%, 100%)" offset="0.695312"/><stop stop-opacity="1" stop-color="rgb(0%, 71.806335%, 100%)" offset="0.699219"/><stop stop-opacity="1" stop-color="rgb(0%, 72.358704%, 100%)" offset="0.703125"/><stop stop-opacity="1" stop-color="rgb(0%, 72.909546%, 100%)" offset="0.707031"/><stop stop-opacity="1" stop-color="rgb(0%, 73.460388%, 100%)" offset="0.710938"/><stop stop-opacity="1" stop-color="rgb(0%, 74.01123%, 100%)" offset="0.714844"/><stop stop-opacity="1" stop-color="rgb(0%, 74.563599%, 100%)" offset="0.71875"/><stop stop-opacity="1" stop-color="rgb(0%, 75.114441%, 100%)" offset="0.722656"/><stop stop-opacity="1" stop-color="rgb(0%, 75.666809%, 100%)" offset="0.726562"/><stop stop-opacity="1" stop-color="rgb(0%, 75.881958%, 100%)" offset="0.730469"/><stop stop-opacity="1" stop-color="rgb(0%, 76.098633%, 100%)" offset="0.734375"/><stop stop-opacity="1" stop-color="rgb(0%, 76.098633%, 100%)" offset="0.75"/><stop stop-opacity="1" stop-color="rgb(0%, 76.098633%, 100%)" offset="1"/></linearGradient></defs><g clip-path="url(#a486d203d8)"><path fill="#ffffff" d="M 0.96875 0 L 59.03125 0 L 59.03125 29.03125 L 0.96875 29.03125 Z M 0.96875 0 " fill-opacity="1" fill-rule="nonzero"/><path fill="#000000" d="M 0.96875 0 L 59.03125 0 L 59.03125 29.03125 L 0.96875 29.03125 Z M 0.96875 0 " fill-opacity="1" fill-rule="nonzero"/></g><g clip-path="url(#816f0edb4f)"><g clip-path="url(#405e82daf8)"><g clip-path="url(#5742a64a3a)"><g clip-path="url(#cf0ad7ca2a)"><path fill="url(#b3b4ca566a)" d="M 4.058594 10.359375 L 4.058594 25.660156 L 13.738281 25.660156 L 13.738281 10.359375 Z M 4.058594 10.359375 " fill-rule="nonzero"/></g></g></g></g><g clip-path="url(#c945589939)"><g clip-path="url(#1f3f684c58)"><g clip-path="url(#a5fd900299)"><g clip-path="url(#0bfed320b7)"><path fill="url(#b493d15090)" d="M 18.914062 10.34375 L 18.914062 16.113281 L 27.046875 16.113281 L 27.046875 10.34375 Z M 18.914062 10.34375 " fill-rule="nonzero"/></g></g></g></g><g clip-path="url(#adc5cbfd7a)"><g clip-path="url(#864d692ee2)"><g clip-path="url(#3f31bb29d9)"><g clip-path="url(#273a5c0acc)"><path fill="url(#1f0b0723ac)" d="M 15.480469 29.480469 L 31.238281 13.726562 L 15.480469 -2.03125 L -0.273438 13.726562 Z M 15.480469 29.480469 " fill-rule="nonzero"/></g></g></g></g><g fill="#ffffff" fill-opacity="1"><g transform="translate(20.297562, 18.12323)"><g><path d="M 3.628906 0.160156 C 4.054688 0.160156 4.609375 0.0859375 4.988281 -0.0429688 L 4.988281 -1.257812 C 4.726562 -1.183594 4.375 -1.140625 4.113281 -1.140625 C 3.496094 -1.140625 3.101562 -1.59375 3.101562 -2.269531 L 3.085938 -6.203125 L 4.886719 -6.203125 L 4.886719 -7.433594 L 3.085938 -7.433594 L 3.101562 -9.714844 L 1.753906 -9.714844 L 1.492188 -7.433594 L 0.292969 -7.433594 L 0.292969 -6.203125 L 1.433594 -6.203125 L 1.433594 -2.210938 C 1.433594 -0.789062 2.296875 0.160156 3.628906 0.160156 Z M 3.628906 0.160156 "/></g></g></g><g fill="#ffffff" fill-opacity="1"><g transform="translate(25.681631, 18.12323)"><g><path d="M 3.9375 0.261719 C 5.941406 0.261719 7.300781 -0.660156 7.300781 -2.152344 C 7.300781 -3.921875 5.664062 -4.183594 4.273438 -4.375 C 3.175781 -4.519531 2.164062 -4.625 2.164062 -5.558594 C 2.164062 -6.1875 2.824219 -6.628906 3.761719 -6.628906 C 4.828125 -6.628906 5.546875 -6.074219 5.546875 -5.222656 L 7.039062 -5.222656 C 7.039062 -6.730469 5.675781 -7.695312 3.761719 -7.695312 C 1.886719 -7.695312 0.628906 -6.789062 0.628906 -5.398438 C 0.628906 -3.539062 2.328125 -3.351562 3.65625 -3.191406 C 4.695312 -3.058594 5.648438 -2.96875 5.648438 -1.960938 C 5.648438 -1.257812 4.929688 -0.804688 3.949219 -0.804688 C 2.765625 -0.804688 1.960938 -1.449219 1.945312 -2.371094 L 0.511719 -2.371094 C 0.511719 -0.789062 1.871094 0.261719 3.9375 0.261719 Z M 3.9375 0.261719 "/></g></g></g><g fill="#ffffff" fill-opacity="1"><g transform="translate(33.509011, 18.12323)"><g><path d="M 1.84375 -8.632812 C 2.445312 -8.632812 2.882812 -9.042969 2.882812 -9.628906 C 2.882812 -10.214844 2.445312 -10.621094 1.84375 -10.621094 C 1.257812 -10.621094 0.820312 -10.214844 0.820312 -9.628906 C 0.820312 -9.042969 1.257812 -8.632812 1.84375 -8.632812 Z M 1.007812 0 L 2.675781 0 L 2.675781 -7.433594 L 1.007812 -7.433594 Z M 1.007812 0 "/></g></g></g><g fill="#a100ed" fill-opacity="1"><g transform="translate(37.199213, 18.12323)"><g><path d="M 0.949219 0 L 2.621094 0 L 2.621094 -10.796875 L 0.949219 -10.796875 Z M 0.949219 0 "/></g></g></g><g fill="#a100ed" fill-opacity="1"><g transform="translate(40.769083, 18.12323)"><g><path d="M 3.027344 0 L 5.488281 0 L 8.28125 -7.433594 L 6.496094 -7.433594 L 4.316406 -1.390625 L 4.199219 -1.390625 L 2.019531 -7.433594 L 0.234375 -7.433594 Z M 3.027344 0 "/></g></g></g><g fill="#a100ed" fill-opacity="1"><g transform="translate(49.298732, 18.12323)"><g><path d="M 2.925781 0.234375 C 4.082031 0.234375 5.121094 -0.234375 5.605469 -1.15625 L 5.707031 -1.15625 L 5.707031 0 L 7.375 0 L 7.375 -4.859375 C 7.375 -6.496094 6.042969 -7.609375 4.125 -7.609375 C 2.164062 -7.609375 0.835938 -6.527344 0.835938 -4.960938 L 2.445312 -4.960938 C 2.445312 -5.867188 3.132812 -6.496094 4.113281 -6.496094 C 5.0625 -6.496094 5.707031 -5.839844 5.707031 -4.917969 L 5.707031 -4.519531 L 3.863281 -4.230469 C 1.523438 -3.863281 0.484375 -3.085938 0.484375 -1.753906 C 0.484375 -0.496094 1.464844 0.234375 2.925781 0.234375 Z M 3.511719 -0.847656 C 2.621094 -0.847656 2.09375 -1.242188 2.09375 -1.886719 C 2.09375 -2.574219 2.621094 -3.027344 3.964844 -3.261719 L 5.707031 -3.554688 L 5.707031 -2.910156 C 5.707031 -1.726562 4.828125 -0.847656 3.511719 -0.847656 Z M 3.511719 -0.847656 "/></g></g></g><g fill="#ff00ff" fill-opacity="1"><g transform="translate(25.7937, 22.085773)"><g><path d="M 0.847656 0.046875 C 1.109375 0.046875 1.304688 -0.078125 1.414062 -0.285156 L 1.4375 -0.285156 L 1.4375 0 L 1.78125 0 L 1.78125 -2.25 L 1.4375 -2.25 L 1.4375 -1.265625 L 1.414062 -1.265625 C 1.304688 -1.472656 1.109375 -1.597656 0.84375 -1.597656 C 0.410156 -1.597656 0.105469 -1.265625 0.105469 -0.773438 C 0.105469 -0.28125 0.410156 0.046875 0.847656 0.046875 Z M 0.953125 -0.246094 C 0.660156 -0.246094 0.453125 -0.46875 0.453125 -0.773438 C 0.453125 -1.078125 0.660156 -1.300781 0.953125 -1.300781 C 1.238281 -1.300781 1.449219 -1.078125 1.449219 -0.773438 C 1.449219 -0.46875 1.238281 -0.246094 0.953125 -0.246094 Z M 0.953125 -0.246094 "/></g></g></g><g fill="#ff00ff" fill-opacity="1"><g transform="translate(28.422333, 22.085773)"><g><path d="M 0.964844 0.046875 C 1.335938 0.046875 1.660156 -0.152344 1.746094 -0.453125 L 1.441406 -0.5 C 1.375 -0.328125 1.191406 -0.203125 0.980469 -0.203125 C 0.691406 -0.203125 0.488281 -0.394531 0.464844 -0.679688 L 1.792969 -0.679688 L 1.796875 -0.773438 C 1.796875 -1.265625 1.460938 -1.597656 0.96875 -1.597656 C 0.464844 -1.597656 0.109375 -1.269531 0.109375 -0.777344 C 0.109375 -0.285156 0.460938 0.046875 0.964844 0.046875 Z M 0.460938 -0.882812 C 0.488281 -1.160156 0.683594 -1.351562 0.960938 -1.351562 C 1.230469 -1.351562 1.425781 -1.148438 1.445312 -0.882812 Z M 0.460938 -0.882812 "/></g></g></g><g fill="#ff00ff" fill-opacity="1"><g transform="translate(30.971698, 22.085773)"><g><path d="M 0.632812 0 L 1.144531 0 L 1.726562 -1.550781 L 1.355469 -1.550781 L 0.898438 -0.289062 L 0.875 -0.289062 L 0.421875 -1.550781 L 0.046875 -1.550781 Z M 0.632812 0 "/></g></g></g><g fill="#ff00ff" fill-opacity="1"><g transform="translate(33.396068, 22.085773)"><g><path d="M 0.964844 0.046875 C 1.335938 0.046875 1.660156 -0.152344 1.746094 -0.453125 L 1.441406 -0.5 C 1.375 -0.328125 1.191406 -0.203125 0.980469 -0.203125 C 0.691406 -0.203125 0.488281 -0.394531 0.464844 -0.679688 L 1.792969 -0.679688 L 1.796875 -0.773438 C 1.796875 -1.265625 1.460938 -1.597656 0.96875 -1.597656 C 0.464844 -1.597656 0.109375 -1.269531 0.109375 -0.777344 C 0.109375 -0.285156 0.460938 0.046875 0.964844 0.046875 Z M 0.460938 -0.882812 C 0.488281 -1.160156 0.683594 -1.351562 0.960938 -1.351562 C 1.230469 -1.351562 1.425781 -1.148438 1.445312 -0.882812 Z M 0.460938 -0.882812 "/></g></g></g><g fill="#ff00ff" fill-opacity="1"><g transform="translate(35.945433, 22.085773)"><g><path d="M 0.199219 0 L 0.546875 0 L 0.546875 -2.25 L 0.199219 -2.25 Z M 0.199219 0 "/></g></g></g><g fill="#ff00ff" fill-opacity="1"><g transform="translate(37.336292, 22.085773)"><g><path d="M 0.949219 0.046875 C 1.453125 0.046875 1.792969 -0.277344 1.792969 -0.773438 C 1.792969 -1.273438 1.453125 -1.597656 0.949219 -1.597656 C 0.445312 -1.597656 0.105469 -1.273438 0.105469 -0.773438 C 0.105469 -0.277344 0.449219 0.046875 0.949219 0.046875 Z M 0.949219 -0.246094 C 0.660156 -0.246094 0.453125 -0.464844 0.453125 -0.773438 C 0.453125 -1.082031 0.660156 -1.300781 0.949219 -1.300781 C 1.242188 -1.300781 1.449219 -1.082031 1.449219 -0.773438 C 1.449219 -0.464844 1.242188 -0.246094 0.949219 -0.246094 Z M 0.949219 -0.246094 "/></g></g></g><g fill="#ff00ff" fill-opacity="1"><g transform="translate(39.879561, 22.085773)"><g><path d="M 0.203125 0.703125 L 0.546875 0.703125 L 0.546875 -0.285156 L 0.574219 -0.285156 C 0.679688 -0.078125 0.875 0.046875 1.136719 0.046875 C 1.570312 0.046875 1.875 -0.285156 1.875 -0.773438 C 1.875 -1.269531 1.574219 -1.597656 1.136719 -1.597656 C 0.871094 -1.597656 0.679688 -1.472656 0.574219 -1.265625 L 0.546875 -1.265625 L 0.546875 -1.550781 L 0.203125 -1.550781 Z M 1.03125 -0.246094 C 0.746094 -0.246094 0.535156 -0.46875 0.535156 -0.773438 C 0.535156 -1.078125 0.746094 -1.300781 1.03125 -1.300781 C 1.320312 -1.300781 1.527344 -1.078125 1.527344 -0.773438 C 1.527344 -0.46875 1.320312 -0.246094 1.03125 -0.246094 Z M 1.03125 -0.246094 "/></g></g></g><g fill="#ff00ff" fill-opacity="1"><g transform="translate(42.508194, 22.085773)"><g><path d="M 0.203125 0 L 0.546875 0 L 0.546875 -0.90625 C 0.546875 -1.148438 0.6875 -1.300781 0.90625 -1.300781 C 1.109375 -1.300781 1.246094 -1.148438 1.246094 -0.90625 L 1.246094 0 L 1.59375 0 L 1.59375 -0.90625 C 1.59375 -1.144531 1.738281 -1.300781 1.957031 -1.300781 C 2.171875 -1.300781 2.304688 -1.136719 2.304688 -0.90625 L 2.304688 0 L 2.652344 0 L 2.652344 -0.976562 C 2.652344 -1.347656 2.421875 -1.597656 2.082031 -1.597656 C 1.824219 -1.597656 1.644531 -1.464844 1.570312 -1.25 L 1.550781 -1.25 C 1.484375 -1.460938 1.289062 -1.597656 1.050781 -1.597656 C 0.828125 -1.597656 0.65625 -1.480469 0.570312 -1.296875 L 0.546875 -1.296875 L 0.546875 -1.550781 L 0.203125 -1.550781 Z M 0.203125 0 "/></g></g></g><g fill="#ff00ff" fill-opacity="1"><g transform="translate(45.981316, 22.085773)"><g><path d="M 0.964844 0.046875 C 1.335938 0.046875 1.660156 -0.152344 1.746094 -0.453125 L 1.441406 -0.5 C 1.375 -0.328125 1.191406 -0.203125 0.980469 -0.203125 C 0.691406 -0.203125 0.488281 -0.394531 0.464844 -0.679688 L 1.792969 -0.679688 L 1.796875 -0.773438 C 1.796875 -1.265625 1.460938 -1.597656 0.96875 -1.597656 C 0.464844 -1.597656 0.109375 -1.269531 0.109375 -0.777344 C 0.109375 -0.285156 0.460938 0.046875 0.964844 0.046875 Z M 0.460938 -0.882812 C 0.488281 -1.160156 0.683594 -1.351562 0.960938 -1.351562 C 1.230469 -1.351562 1.425781 -1.148438 1.445312 -0.882812 Z M 0.460938 -0.882812 "/></g></g></g><g fill="#ff00ff" fill-opacity="1"><g transform="translate(48.530681, 22.085773)"><g><path d="M 0.203125 0 L 0.546875 0 L 0.546875 -0.890625 C 0.546875 -1.132812 0.722656 -1.300781 0.949219 -1.300781 C 1.175781 -1.300781 1.316406 -1.125 1.316406 -0.875 L 1.316406 0 L 1.664062 0 L 1.664062 -0.9375 C 1.664062 -1.316406 1.429688 -1.597656 1.078125 -1.597656 C 0.855469 -1.597656 0.679688 -1.484375 0.570312 -1.285156 L 0.546875 -1.285156 L 0.546875 -1.550781 L 0.203125 -1.550781 Z M 0.203125 0 "/></g></g></g><g fill="#ff00ff" fill-opacity="1"><g transform="translate(51.019073, 22.085773)"><g><path d="M 0.757812 0.0351562 C 0.84375 0.0351562 0.960938 0.0195312 1.039062 -0.0078125 L 1.039062 -0.261719 C 0.984375 -0.246094 0.914062 -0.238281 0.855469 -0.238281 C 0.730469 -0.238281 0.648438 -0.332031 0.648438 -0.472656 L 0.644531 -1.292969 L 1.019531 -1.292969 L 1.019531 -1.550781 L 0.644531 -1.550781 L 0.648438 -2.027344 L 0.367188 -2.027344 L 0.3125 -1.550781 L 0.0625 -1.550781 L 0.0625 -1.292969 L 0.300781 -1.292969 L 0.300781 -0.460938 C 0.300781 -0.164062 0.480469 0.0351562 0.757812 0.0351562 Z M 0.757812 0.0351562 "/></g></g></g><g fill="#00ffff" fill-opacity="1"><g transform="translate(25.679259, 22.085773)"><g><path d="M 0.847656 0.046875 C 1.109375 0.046875 1.304688 -0.078125 1.414062 -0.285156 L 1.4375 -0.285156 L 1.4375 0 L 1.78125 0 L 1.78125 -2.25 L 1.4375 -2.25 L 1.4375 -1.265625 L 1.414062 -1.265625 C 1.304688 -1.472656 1.109375 -1.597656 0.84375 -1.597656 C 0.410156 -1.597656 0.105469 -1.265625 0.105469 -0.773438 C 0.105469 -0.28125 0.410156 0.046875 0.847656 0.046875 Z M 0.953125 -0.246094 C 0.660156 -0.246094 0.453125 -0.46875 0.453125 -0.773438 C 0.453125 -1.078125 0.660156 -1.300781 0.953125 -1.300781 C 1.238281 -1.300781 1.449219 -1.078125 1.449219 -0.773438 C 1.449219 -0.46875 1.238281 -0.246094 0.953125 -0.246094 Z M 0.953125 -0.246094 "/></g></g></g><g fill="#00ffff" fill-opacity="1"><g transform="translate(28.307892, 22.085773)"><g><path d="M 0.964844 0.046875 C 1.335938 0.046875 1.660156 -0.152344 1.746094 -0.453125 L 1.441406 -0.5 C 1.375 -0.328125 1.191406 -0.203125 0.980469 -0.203125 C 0.691406 -0.203125 0.488281 -0.394531 0.464844 -0.679688 L 1.792969 -0.679688 L 1.796875 -0.773438 C 1.796875 -1.265625 1.460938 -1.597656 0.96875 -1.597656 C 0.464844 -1.597656 0.109375 -1.269531 0.109375 -0.777344 C 0.109375 -0.285156 0.460938 0.046875 0.964844 0.046875 Z M 0.460938 -0.882812 C 0.488281 -1.160156 0.683594 -1.351562 0.960938 -1.351562 C 1.230469 -1.351562 1.425781 -1.148438 1.445312 -0.882812 Z M 0.460938 -0.882812 "/></g></g></g><g fill="#00ffff" fill-opacity="1"><g transform="translate(30.857257, 22.085773)"><g><path d="M 0.632812 0 L 1.144531 0 L 1.726562 -1.550781 L 1.355469 -1.550781 L 0.898438 -0.289062 L 0.875 -0.289062 L 0.421875 -1.550781 L 0.046875 -1.550781 Z M 0.632812 0 "/></g></g></g><g fill="#00ffff" fill-opacity="1"><g transform="translate(33.281626, 22.085773)"><g><path d="M 0.964844 0.046875 C 1.335938 0.046875 1.660156 -0.152344 1.746094 -0.453125 L 1.441406 -0.5 C 1.375 -0.328125 1.191406 -0.203125 0.980469 -0.203125 C 0.691406 -0.203125 0.488281 -0.394531 0.464844 -0.679688 L 1.792969 -0.679688 L 1.796875 -0.773438 C 1.796875 -1.265625 1.460938 -1.597656 0.96875 -1.597656 C 0.464844 -1.597656 0.109375 -1.269531 0.109375 -0.777344 C 0.109375 -0.285156 0.460938 0.046875 0.964844 0.046875 Z M 0.460938 -0.882812 C 0.488281 -1.160156 0.683594 -1.351562 0.960938 -1.351562 C 1.230469 -1.351562 1.425781 -1.148438 1.445312 -0.882812 Z M 0.460938 -0.882812 "/></g></g></g><g fill="#00ffff" fill-opacity="1"><g transform="translate(35.830991, 22.085773)"><g><path d="M 0.199219 0 L 0.546875 0 L 0.546875 -2.25 L 0.199219 -2.25 Z M 0.199219 0 "/></g></g></g><g fill="#00ffff" fill-opacity="1"><g transform="translate(37.221851, 22.085773)"><g><path d="M 0.949219 0.046875 C 1.453125 0.046875 1.792969 -0.277344 1.792969 -0.773438 C 1.792969 -1.273438 1.453125 -1.597656 0.949219 -1.597656 C 0.445312 -1.597656 0.105469 -1.273438 0.105469 -0.773438 C 0.105469 -0.277344 0.449219 0.046875 0.949219 0.046875 Z M 0.949219 -0.246094 C 0.660156 -0.246094 0.453125 -0.464844 0.453125 -0.773438 C 0.453125 -1.082031 0.660156 -1.300781 0.949219 -1.300781 C 1.242188 -1.300781 1.449219 -1.082031 1.449219 -0.773438 C 1.449219 -0.464844 1.242188 -0.246094 0.949219 -0.246094 Z M 0.949219 -0.246094 "/></g></g></g><g fill="#00ffff" fill-opacity="1"><g transform="translate(39.76512, 22.085773)"><g><path d="M 0.203125 0.703125 L 0.546875 0.703125 L 0.546875 -0.285156 L 0.574219 -0.285156 C 0.679688 -0.078125 0.875 0.046875 1.136719 0.046875 C 1.570312 0.046875 1.875 -0.285156 1.875 -0.773438 C 1.875 -1.269531 1.574219 -1.597656 1.136719 -1.597656 C 0.871094 -1.597656 0.679688 -1.472656 0.574219 -1.265625 L 0.546875 -1.265625 L 0.546875 -1.550781 L 0.203125 -1.550781 Z M 1.03125 -0.246094 C 0.746094 -0.246094 0.535156 -0.46875 0.535156 -0.773438 C 0.535156 -1.078125 0.746094 -1.300781 1.03125 -1.300781 C 1.320312 -1.300781 1.527344 -1.078125 1.527344 -0.773438 C 1.527344 -0.46875 1.320312 -0.246094 1.03125 -0.246094 Z M 1.03125 -0.246094 "/></g></g></g><g fill="#00ffff" fill-opacity="1"><g transform="translate(42.393753, 22.085773)"><g><path d="M 0.203125 0 L 0.546875 0 L 0.546875 -0.90625 C 0.546875 -1.148438 0.6875 -1.300781 0.90625 -1.300781 C 1.109375 -1.300781 1.246094 -1.148438 1.246094 -0.90625 L 1.246094 0 L 1.59375 0 L 1.59375 -0.90625 C 1.59375 -1.144531 1.738281 -1.300781 1.957031 -1.300781 C 2.171875 -1.300781 2.304688 -1.136719 2.304688 -0.90625 L 2.304688 0 L 2.652344 0 L 2.652344 -0.976562 C 2.652344 -1.347656 2.421875 -1.597656 2.082031 -1.597656 C 1.824219 -1.597656 1.644531 -1.464844 1.570312 -1.25 L 1.550781 -1.25 C 1.484375 -1.460938 1.289062 -1.597656 1.050781 -1.597656 C 0.828125 -1.597656 0.65625 -1.480469 0.570312 -1.296875 L 0.546875 -1.296875 L 0.546875 -1.550781 L 0.203125 -1.550781 Z M 0.203125 0 "/></g></g></g><g fill="#00ffff" fill-opacity="1"><g transform="translate(45.866875, 22.085773)"><g><path d="M 0.964844 0.046875 C 1.335938 0.046875 1.660156 -0.152344 1.746094 -0.453125 L 1.441406 -0.5 C 1.375 -0.328125 1.191406 -0.203125 0.980469 -0.203125 C 0.691406 -0.203125 0.488281 -0.394531 0.464844 -0.679688 L 1.792969 -0.679688 L 1.796875 -0.773438 C 1.796875 -1.265625 1.460938 -1.597656 0.96875 -1.597656 C 0.464844 -1.597656 0.109375 -1.269531 0.109375 -0.777344 C 0.109375 -0.285156 0.460938 0.046875 0.964844 0.046875 Z M 0.460938 -0.882812 C 0.488281 -1.160156 0.683594 -1.351562 0.960938 -1.351562 C 1.230469 -1.351562 1.425781 -1.148438 1.445312 -0.882812 Z M 0.460938 -0.882812 "/></g></g></g><g fill="#00ffff" fill-opacity="1"><g transform="translate(48.41624, 22.085773)"><g><path d="M 0.203125 0 L 0.546875 0 L 0.546875 -0.890625 C 0.546875 -1.132812 0.722656 -1.300781 0.949219 -1.300781 C 1.175781 -1.300781 1.316406 -1.125 1.316406 -0.875 L 1.316406 0 L 1.664062 0 L 1.664062 -0.9375 C 1.664062 -1.316406 1.429688 -1.597656 1.078125 -1.597656 C 0.855469 -1.597656 0.679688 -1.484375 0.570312 -1.285156 L 0.546875 -1.285156 L 0.546875 -1.550781 L 0.203125 -1.550781 Z M 0.203125 0 "/></g></g></g><g fill="#00ffff" fill-opacity="1"><g transform="translate(50.904631, 22.085773)"><g><path d="M 0.757812 0.0351562 C 0.84375 0.0351562 0.960938 0.0195312 1.039062 -0.0078125 L 1.039062 -0.261719 C 0.984375 -0.246094 0.914062 -0.238281 0.855469 -0.238281 C 0.730469 -0.238281 0.648438 -0.332031 0.648438 -0.472656 L 0.644531 -1.292969 L 1.019531 -1.292969 L 1.019531 -1.550781 L 0.644531 -1.550781 L 0.648438 -2.027344 L 0.367188 -2.027344 L 0.3125 -1.550781 L 0.0625 -1.550781 L 0.0625 -1.292969 L 0.300781 -1.292969 L 0.300781 -0.460938 C 0.300781 -0.164062 0.480469 0.0351562 0.757812 0.0351562 Z M 0.757812 0.0351562 "/></g></g></g><g fill="#00c2ff" fill-opacity="1"><g transform="translate(25.736479, 22.085773)"><g><path d="M 0.847656 0.046875 C 1.109375 0.046875 1.304688 -0.078125 1.414062 -0.285156 L 1.4375 -0.285156 L 1.4375 0 L 1.78125 0 L 1.78125 -2.25 L 1.4375 -2.25 L 1.4375 -1.265625 L 1.414062 -1.265625 C 1.304688 -1.472656 1.109375 -1.597656 0.84375 -1.597656 C 0.410156 -1.597656 0.105469 -1.265625 0.105469 -0.773438 C 0.105469 -0.28125 0.410156 0.046875 0.847656 0.046875 Z M 0.953125 -0.246094 C 0.660156 -0.246094 0.453125 -0.46875 0.453125 -0.773438 C 0.453125 -1.078125 0.660156 -1.300781 0.953125 -1.300781 C 1.238281 -1.300781 1.449219 -1.078125 1.449219 -0.773438 C 1.449219 -0.46875 1.238281 -0.246094 0.953125 -0.246094 Z M 0.953125 -0.246094 "/></g></g></g><g fill="#00c2ff" fill-opacity="1"><g transform="translate(28.365112, 22.085773)"><g><path d="M 0.964844 0.046875 C 1.335938 0.046875 1.660156 -0.152344 1.746094 -0.453125 L 1.441406 -0.5 C 1.375 -0.328125 1.191406 -0.203125 0.980469 -0.203125 C 0.691406 -0.203125 0.488281 -0.394531 0.464844 -0.679688 L 1.792969 -0.679688 L 1.796875 -0.773438 C 1.796875 -1.265625 1.460938 -1.597656 0.96875 -1.597656 C 0.464844 -1.597656 0.109375 -1.269531 0.109375 -0.777344 C 0.109375 -0.285156 0.460938 0.046875 0.964844 0.046875 Z M 0.460938 -0.882812 C 0.488281 -1.160156 0.683594 -1.351562 0.960938 -1.351562 C 1.230469 -1.351562 1.425781 -1.148438 1.445312 -0.882812 Z M 0.460938 -0.882812 "/></g></g></g><g fill="#00c2ff" fill-opacity="1"><g transform="translate(30.914477, 22.085773)"><g><path d="M 0.632812 0 L 1.144531 0 L 1.726562 -1.550781 L 1.355469 -1.550781 L 0.898438 -0.289062 L 0.875 -0.289062 L 0.421875 -1.550781 L 0.046875 -1.550781 Z M 0.632812 0 "/></g></g></g><g fill="#00c2ff" fill-opacity="1"><g transform="translate(33.338847, 22.085773)"><g><path d="M 0.964844 0.046875 C 1.335938 0.046875 1.660156 -0.152344 1.746094 -0.453125 L 1.441406 -0.5 C 1.375 -0.328125 1.191406 -0.203125 0.980469 -0.203125 C 0.691406 -0.203125 0.488281 -0.394531 0.464844 -0.679688 L 1.792969 -0.679688 L 1.796875 -0.773438 C 1.796875 -1.265625 1.460938 -1.597656 0.96875 -1.597656 C 0.464844 -1.597656 0.109375 -1.269531 0.109375 -0.777344 C 0.109375 -0.285156 0.460938 0.046875 0.964844 0.046875 Z M 0.460938 -0.882812 C 0.488281 -1.160156 0.683594 -1.351562 0.960938 -1.351562 C 1.230469 -1.351562 1.425781 -1.148438 1.445312 -0.882812 Z M 0.460938 -0.882812 "/></g></g></g><g fill="#00c2ff" fill-opacity="1"><g transform="translate(35.888212, 22.085773)"><g><path d="M 0.199219 0 L 0.546875 0 L 0.546875 -2.25 L 0.199219 -2.25 Z M 0.199219 0 "/></g></g></g><g fill="#00c2ff" fill-opacity="1"><g transform="translate(37.279071, 22.085773)"><g><path d="M 0.949219 0.046875 C 1.453125 0.046875 1.792969 -0.277344 1.792969 -0.773438 C 1.792969 -1.273438 1.453125 -1.597656 0.949219 -1.597656 C 0.445312 -1.597656 0.105469 -1.273438 0.105469 -0.773438 C 0.105469 -0.277344 0.449219 0.046875 0.949219 0.046875 Z M 0.949219 -0.246094 C 0.660156 -0.246094 0.453125 -0.464844 0.453125 -0.773438 C 0.453125 -1.082031 0.660156 -1.300781 0.949219 -1.300781 C 1.242188 -1.300781 1.449219 -1.082031 1.449219 -0.773438 C 1.449219 -0.464844 1.242188 -0.246094 0.949219 -0.246094 Z M 0.949219 -0.246094 "/></g></g></g><g fill="#00c2ff" fill-opacity="1"><g transform="translate(39.822341, 22.085773)"><g><path d="M 0.203125 0.703125 L 0.546875 0.703125 L 0.546875 -0.285156 L 0.574219 -0.285156 C 0.679688 -0.078125 0.875 0.046875 1.136719 0.046875 C 1.570312 0.046875 1.875 -0.285156 1.875 -0.773438 C 1.875 -1.269531 1.574219 -1.597656 1.136719 -1.597656 C 0.871094 -1.597656 0.679688 -1.472656 0.574219 -1.265625 L 0.546875 -1.265625 L 0.546875 -1.550781 L 0.203125 -1.550781 Z M 1.03125 -0.246094 C 0.746094 -0.246094 0.535156 -0.46875 0.535156 -0.773438 C 0.535156 -1.078125 0.746094 -1.300781 1.03125 -1.300781 C 1.320312 -1.300781 1.527344 -1.078125 1.527344 -0.773438 C 1.527344 -0.46875 1.320312 -0.246094 1.03125 -0.246094 Z M 1.03125 -0.246094 "/></g></g></g><g fill="#00c2ff" fill-opacity="1"><g transform="translate(42.450973, 22.085773)"><g><path d="M 0.203125 0 L 0.546875 0 L 0.546875 -0.90625 C 0.546875 -1.148438 0.6875 -1.300781 0.90625 -1.300781 C 1.109375 -1.300781 1.246094 -1.148438 1.246094 -0.90625 L 1.246094 0 L 1.59375 0 L 1.59375 -0.90625 C 1.59375 -1.144531 1.738281 -1.300781 1.957031 -1.300781 C 2.171875 -1.300781 2.304688 -1.136719 2.304688 -0.90625 L 2.304688 0 L 2.652344 0 L 2.652344 -0.976562 C 2.652344 -1.347656 2.421875 -1.597656 2.082031 -1.597656 C 1.824219 -1.597656 1.644531 -1.464844 1.570312 -1.25 L 1.550781 -1.25 C 1.484375 -1.460938 1.289062 -1.597656 1.050781 -1.597656 C 0.828125 -1.597656 0.65625 -1.480469 0.570312 -1.296875 L 0.546875 -1.296875 L 0.546875 -1.550781 L 0.203125 -1.550781 Z M 0.203125 0 "/></g></g></g><g fill="#00c2ff" fill-opacity="1"><g transform="translate(45.924095, 22.085773)"><g><path d="M 0.964844 0.046875 C 1.335938 0.046875 1.660156 -0.152344 1.746094 -0.453125 L 1.441406 -0.5 C 1.375 -0.328125 1.191406 -0.203125 0.980469 -0.203125 C 0.691406 -0.203125 0.488281 -0.394531 0.464844 -0.679688 L 1.792969 -0.679688 L 1.796875 -0.773438 C 1.796875 -1.265625 1.460938 -1.597656 0.96875 -1.597656 C 0.464844 -1.597656 0.109375 -1.269531 0.109375 -0.777344 C 0.109375 -0.285156 0.460938 0.046875 0.964844 0.046875 Z M 0.460938 -0.882812 C 0.488281 -1.160156 0.683594 -1.351562 0.960938 -1.351562 C 1.230469 -1.351562 1.425781 -1.148438 1.445312 -0.882812 Z M 0.460938 -0.882812 "/></g></g></g><g fill="#00c2ff" fill-opacity="1"><g transform="translate(48.47346, 22.085773)"><g><path d="M 0.203125 0 L 0.546875 0 L 0.546875 -0.890625 C 0.546875 -1.132812 0.722656 -1.300781 0.949219 -1.300781 C 1.175781 -1.300781 1.316406 -1.125 1.316406 -0.875 L 1.316406 0 L 1.664062 0 L 1.664062 -0.9375 C 1.664062 -1.316406 1.429688 -1.597656 1.078125 -1.597656 C 0.855469 -1.597656 0.679688 -1.484375 0.570312 -1.285156 L 0.546875 -1.285156 L 0.546875 -1.550781 L 0.203125 -1.550781 Z M 0.203125 0 "/></g></g></g><g fill="#00c2ff" fill-opacity="1"><g transform="translate(50.961852, 22.085773)"><g><path d="M 0.757812 0.0351562 C 0.84375 0.0351562 0.960938 0.0195312 1.039062 -0.0078125 L 1.039062 -0.261719 C 0.984375 -0.246094 0.914062 -0.238281 0.855469 -0.238281 C 0.730469 -0.238281 0.648438 -0.332031 0.648438 -0.472656 L 0.644531 -1.292969 L 1.019531 -1.292969 L 1.019531 -1.550781 L 0.644531 -1.550781 L 0.648438 -2.027344 L 0.367188 -2.027344 L 0.3125 -1.550781 L 0.0625 -1.550781 L 0.0625 -1.292969 L 0.300781 -1.292969 L 0.300781 -0.460938 C 0.300781 -0.164062 0.480469 0.0351562 0.757812 0.0351562 Z M 0.757812 0.0351562 "/></g></g></g></svg>